Alegreya Sans-Medium Italic.ufo
<glyph name="parenleft" format="1">
  <advance width="290"/>
  <unicode hex="0028"/>
  <outline>
    <contour>
      <point x="282" y="662" type="line"/>
      <point x="100" y="543"/>
      <point x="62" y="308"/>
      <point x="62" y="153" type="curve" smooth="yes"/>
      <point x="62" y="14"/>
      <point x="95" y="-69"/>
      <point x="183" y="-141" type="curve"/>
      <point x="192" y="-141" type="line"/>
      <point x="232" y="-109" type="line"/>
      <point x="233" y="-101" type="line"/>
      <point x="163" y="-37"/>
      <point x="141" y="37"/>
      <point x="141" y="152" type="curve" smooth="yes"/>
      <point x="141" y="282"/>
      <point x="169" y="510"/>
      <point x="322" y="622" type="curve"/>
      <point x="323" y="630" type="line"/>
      <point x="291" y="662" type="line"/>
    </contour>
  </outline>
</glyph>
<glyph name="period" format="1">
  <advance width="230"/>
  <unicode hex="002E"/>
  <outline>
    <contour>
      <point x="60" y="104"/>
      <point x="39" y="82"/>
      <point x="39" y="48" type="curve" smooth="yes"/>
      <point x="39" y="14"/>
      <point x="58" y="-5"/>
      <point x="91" y="-5" type="curve" smooth="yes"/>
      <point x="125" y="-5"/>
      <point x="146" y="17"/>
      <point x="146" y="51" type="curve" smooth="yes"/>
      <point x="146" y="84"/>
      <point x="127" y="104"/>
      <point x="95" y="104" type="curve" smooth="yes"/>
    </contour>
  </outline>
</glyph>
<glyph name="slash" format="1">
  <advance width="286"/>
  <unicode hex="002F"/>
  <outline>
    <contour>
      <point x="248" y="679" type="line"/>
      <point x="-12" y="-105" type="line"/>
      <point x="-6" y="-114" type="line"/>
      <point x="61" y="-114" type="line"/>
      <point x="321" y="669" type="line"/>
      <point x="314" y="679" type="line"/>
    </contour>
  </outline>
</glyph>
<glyph name="at" format="1">
  <advance width="831"/>
  <unicode hex="0040"/>
  <outline>
    <contour>
      <point x="204" y="621"/>
      <point x="33" y="439"/>
      <point x="33" y="187" type="curve" smooth="yes"/>
      <point x="33" y="-55"/>
      <point x="203" y="-199"/>
      <point x="457" y="-202" type="curve"/>
      <point x="485" y="-155" type="line"/>
      <point x="482" y="-145" type="line"/>
      <point x="252" y="-145"/>
      <point x="100" y="-18"/>
      <point x="100" y="199" type="curve" smooth="yes"/>
      <point x="100" y="406"/>
      <point x="240" y="555"/>
      <point x="452" y="558" type="curve" smooth="yes"/>
      <point x="628" y="561"/>
      <point x="738" y="457"/>
      <point x="738" y="300" type="curve" smooth="yes"/>
      <point x="738" y="158"/>
      <point x="654" y="69"/>
      <point x="513" y="64" type="curve"/>
      <point x="452" y="-3" type="line"/>
      <point x="677" y="4"/>
      <point x="803" y="112"/>
      <point x="803" y="303" type="curve" smooth="yes"/>
      <point x="803" y="496"/>
      <point x="669" y="621"/>
      <point x="462" y="621" type="curve" smooth="yes"/>
    </contour>
    <contour>
      <point x="507" y="432" type="line"/>
      <point x="503" y="355" type="line"/>
      <point x="452" y="-3" type="line"/>
      <point x="543" y="18" type="line"/>
      <point x="547" y="111" type="line"/>
      <point x="596" y="460" type="line"/>
      <point x="586" y="466" type="line"/>
    </contour>
    <contour>
      <point x="385" y="200" type="move"/>
    </contour>
    <contour>
      <point x="298" y="436"/>
      <point x="220" y="286"/>
      <point x="220" y="152" type="curve" smooth="yes"/>
      <point x="220" y="73"/>
      <point x="248" y="21"/>
      <point x="305" y="-8" type="curve"/>
      <point x="320" y="-8" type="line"/>
      <point x="375" y="45"/>
      <point x="425" y="113"/>
      <point x="468" y="186" type="curve"/>
      <point x="488" y="186" type="line"/>
      <point x="506" y="357" type="line"/>
      <point x="431" y="177"/>
      <point x="352" y="88"/>
      <point x="330" y="88" type="curve" smooth="yes"/>
      <point x="317" y="88"/>
      <point x="301" y="107"/>
      <point x="301" y="179" type="curve" smooth="yes"/>
      <point x="301" y="298"/>
      <point x="353" y="393"/>
      <point x="441" y="393" type="curve"/>
      <point x="531" y="360" type="line"/>
      <point x="568" y="429" type="line"/>
      <point x="463" y="465" type="line"/>
      <point x="458" y="465" type="line"/>
    </contour>
  </outline>
</glyph>
<glyph name="C" format="1">
  <advance width="503"/>
  <unicode hex="0043"/>
  <outline>
    <contour>
      <point x="162" y="648"/>
      <point x="43" y="501"/>
      <point x="43" y="257" type="curve" smooth="yes"/>
      <point x="43" y="89"/>
      <point x="128" y="-7"/>
      <point x="279" y="-7" type="curve" smooth="yes"/>
      <point x="339" y="-7"/>
      <point x="388" y="6"/>
      <point x="444" y="36" type="curve"/>
      <point x="464" y="126" type="line"/>
      <point x="455" y="132" type="line"/>
      <point x="406" y="96"/>
      <point x="348" y="76"/>
      <point x="294" y="76" type="curve" smooth="yes"/>
      <point x="200" y="76"/>
      <point x="147" y="144"/>
      <point x="147" y="272" type="curve" smooth="yes"/>
      <point x="147" y="461"/>
      <point x="222" y="566"/>
      <point x="354" y="566" type="curve" smooth="yes"/>
      <point x="411" y="566"/>
      <point x="455" y="546"/>
      <point x="491" y="513" type="curve"/>
      <point x="501" y="516" type="line"/>
      <point x="530" y="603" type="line"/>
      <point x="487" y="632"/>
      <point x="430" y="648"/>
      <point x="366" y="648" type="curve" smooth="yes"/>
    </contour>
    <contour>
      <point x="305" y="0" type="move" name="bottom"/>
    </contour>
    <contour>
      <point x="338" y="642" type="move" name="top"/>
    </contour>
  </outline>
</glyph>
<glyph name="D" format="1">
  <advance width="627"/>
  <unicode hex="0044"/>
  <outline>
    <contour>
      <point x="139" y="642" type="line"/>
      <point x="212" y="560" type="line"/>
      <point x="241" y="562"/>
      <point x="329" y="565"/>
      <point x="352" y="565" type="curve" smooth="yes"/>
      <point x="455" y="565"/>
      <point x="507" y="505"/>
      <point x="507" y="378" type="curve" smooth="yes"/>
      <point x="507" y="175"/>
      <point x="426" y="73"/>
      <point x="289" y="73" type="curve" smooth="yes"/>
      <point x="266" y="73"/>
      <point x="181" y="78"/>
      <point x="140" y="83" type="curve"/>
      <point x="58" y="0" type="line"/>
      <point x="115" y="-3"/>
      <point x="228" y="-6"/>
      <point x="269" y="-6" type="curve" smooth="yes"/>
      <point x="490" y="-6"/>
      <point x="610" y="148"/>
      <point x="610" y="395" type="curve" smooth="yes"/>
      <point x="610" y="556"/>
      <point x="520" y="646"/>
      <point x="363" y="646" type="curve"/>
    </contour>
    <contour>
      <point x="138" y="642" type="line"/>
      <point x="87" y="193" type="line"/>
      <point x="57" y="0" type="line"/>
      <point x="156" y="0" type="line"/>
      <point x="175" y="201" type="line"/>
      <point x="237" y="642" type="line"/>
    </contour>
    <contour>
      <point x="311" y="321" type="move" name="center"/>
    </contour>
    <contour>
      <point x="332" y="642" type="move" name="top"/>
    </contour>
  </outline>
</glyph>
<glyph name="J" format="1">
  <advance width="311"/>
  <unicode hex="004A"/>
  <outline>
    <contour>
      <point x="172" y="642" type="line"/>
      <point x="123" y="203" type="line"/>
      <point x="113" y="120" type="line"/>
      <point x="103" y="47"/>
      <point x="63" y="8"/>
      <point x="-29" y="-38" type="curve"/>
      <point x="-30" y="-49" type="line"/>
      <point x="-2" y="-103" type="line"/>
      <point x="136" y="-44"/>
      <point x="190" y="15"/>
      <point x="203" y="119" type="curve"/>
      <point x="212" y="212" type="line"/>
      <point x="272" y="642" type="line"/>
    </contour>
    <contour>
      <point x="56" y="642" type="line"/>
      <point x="42" y="571" type="line"/>
      <point x="50" y="563" type="line"/>
      <point x="180" y="565" type="line"/>
      <point x="188" y="642" type="line"/>
    </contour>
    <contour>
      <point x="182" y="642" type="move" name="top"/>
    </contour>
  </outline>
</glyph>
<glyph name="L" format="1">
  <advance width="406"/>
  <unicode hex="004C"/>
  <outline>
    <contour>
      <point x="135" y="642" type="line"/>
      <point x="84" y="193" type="line"/>
      <point x="54" y="0" type="line"/>
      <point x="153" y="0" type="line"/>
      <point x="173" y="201" type="line"/>
      <point x="234" y="642" type="line"/>
    </contour>
    <contour>
      <point x="126" y="82" type="line"/>
      <point x="113" y="7" type="line"/>
      <point x="115" y="0" type="line"/>
      <point x="369" y="0" type="line"/>
      <point x="385" y="74" type="line"/>
      <point x="381" y="82" type="line"/>
    </contour>
    <contour>
      <point x="203" y="0" type="move" name="bottom"/>
    </contour>
    <contour>
      <point x="185" y="642" type="move" name="top"/>
    </contour>
  </outline>
</glyph>
<glyph name="M" format="1">
  <advance width="761"/>
  <unicode hex="004D"/>
  <outline>
    <contour>
      <point x="590" y="642" type="line"/>
      <point x="550" y="549" type="line"/>
      <point x="380" y="199" type="line"/>
      <point x="373" y="199" type="line"/>
      <point x="298" y="545" type="line"/>
      <point x="281" y="642" type="line"/>
      <point x="169" y="642" type="line"/>
      <point x="25" y="0" type="line"/>
      <point x="108" y="0" type="line"/>
      <point x="149" y="203" type="line"/>
      <point x="212" y="491" type="line"/>
      <point x="220" y="491" type="line"/>
      <point x="316" y="72" type="line"/>
      <point x="395" y="72" type="line"/>
      <point x="604" y="491" type="line"/>
      <point x="612" y="491" type="line"/>
      <point x="604" y="195" type="line"/>
      <point x="591" y="0" type="line"/>
      <point x="678" y="0" type="line"/>
      <point x="702" y="642" type="line"/>
    </contour>
  </outline>
</glyph>
<glyph name="N" format="1">
  <advance width="662"/>
  <unicode hex="004E"/>
  <outline>
    <contour>
      <point x="538" y="637" type="line"/>
      <point x="479" y="153" type="line"/>
      <point x="472" y="153" type="line"/>
      <point x="242" y="642" type="line"/>
      <point x="139" y="642" type="line"/>
      <point x="86" y="190" type="line"/>
      <point x="57" y="0" type="line"/>
      <point x="148" y="0" type="line"/>
      <point x="171" y="214" type="line"/>
      <point x="206" y="488" type="line"/>
      <point x="213" y="488" type="line"/>
      <point x="443" y="0" type="line"/>
      <point x="547" y="0" type="line"/>
      <point x="567" y="191" type="line"/>
      <point x="630" y="644" type="line"/>
    </contour>
    <contour>
      <point x="304" y="0" type="move" name="bottom"/>
    </contour>
    <contour>
      <point x="383" y="642" type="move" name="top"/>
    </contour>
  </outline>
</glyph>
<glyph name="O" format="1">
  <advance width="618"/>
  <unicode hex="004F"/>
  <outline>
    <contour>
      <point x="157" y="649"/>
      <point x="43" y="500"/>
      <point x="43" y="257" type="curve" smooth="yes"/>
      <point x="43" y="88"/>
      <point x="132" y="-8"/>
      <point x="280" y="-8" type="curve" smooth="yes"/>
      <point x="487" y="-8"/>
      <point x="601" y="146"/>
      <point x="601" y="389" type="curve" smooth="yes"/>
      <point x="601" y="556"/>
      <point x="513" y="649"/>
      <point x="363" y="649" type="curve" smooth="yes"/>
    </contour>
    <contour>
      <point x="450" y="568"/>
      <point x="497" y="508"/>
      <point x="497" y="379" type="curve" smooth="yes"/>
      <point x="497" y="174"/>
      <point x="428" y="71"/>
      <point x="289" y="71" type="curve" smooth="yes"/>
      <point x="190" y="71"/>
      <point x="144" y="133"/>
      <point x="144" y="262" type="curve" smooth="yes"/>
      <point x="144" y="465"/>
      <point x="210" y="568"/>
      <point x="351" y="568" type="curve" smooth="yes"/>
    </contour>
    <contour>
      <point x="360" y="642" type="move" name="top"/>
    </contour>
  </outline>
</glyph>
<glyph name="S" format="1">
  <advance width="464"/>
  <unicode hex="0053"/>
  <outline>
    <contour>
      <point x="178" y="648"/>
      <point x="82" y="566"/>
      <point x="82" y="458" type="curve" smooth="yes"/>
      <point x="82" y="285"/>
      <point x="322" y="283"/>
      <point x="322" y="167" type="curve" smooth="yes"/>
      <point x="322" y="114"/>
      <point x="275" y="70"/>
      <point x="203" y="70" type="curve" smooth="yes"/>
      <point x="155" y="70"/>
      <point x="96" y="91"/>
      <point x="52" y="139" type="curve"/>
      <point x="40" y="133" type="line"/>
      <point x="15" y="36" type="line"/>
      <point x="68" y="7"/>
      <point x="135" y="-8"/>
      <point x="191" y="-8" type="curve" smooth="yes"/>
      <point x="326" y="-8"/>
      <point x="423" y="78"/>
      <point x="423" y="186" type="curve" smooth="yes"/>
      <point x="423" y="358"/>
      <point x="179" y="367"/>
      <point x="179" y="477" type="curve" smooth="yes"/>
      <point x="179" y="525"/>
      <point x="223" y="569"/>
      <point x="292" y="569" type="curve" smooth="yes"/>
      <point x="336" y="569"/>
      <point x="378" y="552"/>
      <point x="414" y="521" type="curve"/>
      <point x="430" y="527" type="line"/>
      <point x="457" y="617" type="line"/>
      <point x="403" y="640"/>
      <point x="347" y="648"/>
      <point x="307" y="648" type="curve" smooth="yes"/>
    </contour>
    <contour>
      <point x="205" y="0" type="move" name="bottom"/>
    </contour>
    <contour>
      <point x="285" y="642" type="move" name="top"/>
    </contour>
  </outline>
</glyph>
<glyph name="W" format="1">
  <advance width="859"/>
  <unicode hex="0057"/>
  <outline>
    <contour>
      <point x="812" y="642" type="line"/>
      <point x="788" y="569" type="line"/>
      <point x="581" y="105" type="line"/>
      <point x="574" y="105" type="line"/>
      <point x="496" y="565" type="line"/>
      <point x="491" y="642" type="line"/>
      <point x="390" y="642" type="line"/>
      <point x="419" y="482" type="line"/>
      <point x="252" y="105" type="line"/>
      <point x="245" y="105" type="line"/>
      <point x="169" y="575" type="line"/>
      <point x="167" y="642" type="line"/>
      <point x="71" y="642" type="line"/>
      <point x="177" y="0" type="line"/>
      <point x="281" y="0" type="line"/>
      <point x="437" y="351" type="line"/>
      <point x="444" y="351" type="line"/>
      <point x="509" y="0" type="line"/>
      <point x="611" y="0" type="line"/>
      <point x="904" y="642" type="line"/>
    </contour>
    <contour>
      <point x="459" y="642" type="move" name="top"/>
    </contour>
  </outline>
</glyph>
<glyph name="asciicircum" format="1">
  <advance width="429"/>
  <unicode hex="005E"/>
  <outline>
    <contour>
      <point x="214" y="493" type="line"/>
      <point x="203" y="487" type="line"/>
      <point x="7" y="133" type="line"/>
      <point x="60" y="112" type="line"/>
      <point x="69" y="117" type="line"/>
      <point x="239" y="422" type="line"/>
      <point x="246" y="422" type="line"/>
      <point x="334" y="115" type="line"/>
      <point x="391" y="129" type="line"/>
      <point x="399" y="138" type="line"/>
      <point x="293" y="493" type="line"/>
    </contour>
  </outline>
</glyph>
<glyph name="c" format="1">
  <advance width="341"/>
  <unicode hex="0063"/>
  <outline>
    <contour>
      <point x="104" y="468"/>
      <point x="30" y="327"/>
      <point x="30" y="163" type="curve" smooth="yes"/>
      <point x="30" y="48"/>
      <point x="68" y="6"/>
      <point x="150" y="-7" type="curve"/>
      <point x="164" y="-7" type="line"/>
      <point x="226" y="12"/>
      <point x="267" y="44"/>
      <point x="310" y="117" type="curve"/>
      <point x="280" y="157" type="line"/>
      <point x="267" y="158" type="line"/>
      <point x="230" y="89"/>
      <point x="199" y="73"/>
      <point x="173" y="73" type="curve" smooth="yes"/>
      <point x="136" y="73"/>
      <point x="119" y="102"/>
      <point x="119" y="181" type="curve" smooth="yes"/>
      <point x="119" y="315"/>
      <point x="164" y="394"/>
      <point x="233" y="394" type="curve" smooth="yes"/>
      <point x="256" y="394"/>
      <point x="273" y="386"/>
      <point x="299" y="357" type="curve"/>
      <point x="319" y="359" type="line"/>
      <point x="346" y="433" type="line"/>
      <point x="340" y="446" type="line"/>
      <point x="271" y="468" type="line"/>
    </contour>
    <contour>
      <point x="177" y="0" type="move" name="bottom"/>
    </contour>
    <contour>
      <point x="234" y="461" type="move" name="top"/>
    </contour>
  </outline>
</glyph>
<glyph name="e" format="1">
  <advance width="385"/>
  <unicode hex="0065"/>
  <outline>
    <contour>
      <point x="103" y="169" type="line"/>
      <point x="287" y="227"/>
      <point x="365" y="292"/>
      <point x="365" y="372" type="curve" smooth="yes"/>
      <point x="365" y="428"/>
      <point x="330" y="459"/>
      <point x="274" y="469" type="curve"/>
      <point x="263" y="470" type="line"/>
      <point x="122" y="463"/>
      <point x="30" y="336"/>
      <point x="30" y="159" type="curve"/>
      <point x="30" y="60"/>
      <point x="71" y="0"/>
      <point x="165" y="-7" type="curve"/>
      <point x="178" y="-7" type="line"/>
      <point x="239" y="8"/>
      <point x="293" y="50"/>
      <point x="340" y="116" type="curve"/>
      <point x="308" y="158" type="line"/>
      <point x="294" y="159" type="line"/>
      <point x="267" y="108"/>
      <point x="223" y="71"/>
      <point x="180" y="71" type="curve" smooth="yes"/>
      <point x="139" y="71"/>
      <point x="120" y="105"/>
      <point x="120" y="187" type="curve" smooth="yes"/>
      <point x="120" y="318"/>
      <point x="168" y="403"/>
      <point x="238" y="403" type="curve" smooth="yes"/>
      <point x="267" y="403"/>
      <point x="280" y="390"/>
      <point x="280" y="365" type="curve" smooth="yes"/>
      <point x="280" y="312"/>
      <point x="220" y="267"/>
      <point x="103" y="235" type="curve"/>
    </contour>
    <contour>
      <point x="176" y="0" type="move" name="bottom"/>
    </contour>
    <contour>
      <point x="316" y="10" type="move" name="ogonek"/>
    </contour>
    <contour>
      <point x="236" y="461" type="move" name="top"/>
    </contour>
  </outline>
</glyph>
<glyph name="g" format="1">
  <advance width="450"/>
  <unicode hex="0067"/>
  <outline>
    <contour>
      <point x="316" y="432" type="line"/>
      <point x="312" y="357" type="line"/>
      <point x="264" y="14" type="line" smooth="yes"/>
      <point x="251" y="-79"/>
      <point x="199" y="-127"/>
      <point x="133" y="-127" type="curve" smooth="yes"/>
      <point x="78" y="-127"/>
      <point x="46" y="-93"/>
      <point x="46" y="-60" type="curve" smooth="yes"/>
      <point x="46" y="-52"/>
      <point x="48" y="-48"/>
      <point x="57" y="-41" type="curve" smooth="yes"/>
      <point x="143" y="22" type="line"/>
      <point x="89" y="63" type="line"/>
      <point x="87" y="38" type="line"/>
      <point x="-51" y="-40" type="line"/>
      <point x="-55" y="-50" type="line"/>
      <point x="-39" y="-144"/>
      <point x="21" y="-198"/>
      <point x="113" y="-198" type="curve" smooth="yes"/>
      <point x="229" y="-198"/>
      <point x="331" y="-110"/>
      <point x="352" y="40" type="curve"/>
      <point x="358" y="112" type="line"/>
      <point x="409" y="463" type="line"/>
      <point x="398" y="469" type="line"/>
    </contour>
    <contour>
      <point x="267" y="467" type="line"/>
      <point x="119" y="439"/>
      <point x="44" y="305"/>
      <point x="44" y="168" type="curve" smooth="yes"/>
      <point x="44" y="90"/>
      <point x="69" y="47"/>
      <point x="130" y="22" type="curve"/>
      <point x="142" y="22" type="line"/>
      <point x="192" y="63"/>
      <point x="238" y="120"/>
      <point x="276" y="189" type="curve"/>
      <point x="299" y="189" type="line"/>
      <point x="319" y="364" type="line"/>
      <point x="246" y="200"/>
      <point x="175" y="108"/>
      <point x="155" y="108" type="curve" smooth="yes"/>
      <point x="145" y="108"/>
      <point x="128" y="132"/>
      <point x="128" y="202" type="curve" smooth="yes"/>
      <point x="128" y="309"/>
      <point x="169" y="394"/>
      <point x="249" y="394" type="curve"/>
      <point x="340" y="358" type="line"/>
      <point x="383" y="427" type="line"/>
      <point x="272" y="467" type="line"/>
    </contour>
    <contour>
      <point x="260" y="460" type="move" name="top"/>
    </contour>
  </outline>
</glyph>
<glyph name="n" format="1">
  <advance width="477"/>
  <unicode hex="006E"/>
  <outline>
    <contour>
      <point x="330" y="466" type="line"/>
      <point x="275" y="421"/>
      <point x="228" y="360"/>
      <point x="169" y="259" type="curve"/>
      <point x="153" y="259" type="line"/>
      <point x="130" y="90" type="line"/>
      <point x="215" y="273"/>
      <point x="284" y="363"/>
      <point x="321" y="363" type="curve" smooth="yes"/>
      <point x="335" y="363"/>
      <point x="339" y="353"/>
      <point x="339" y="337" type="curve"/>
      <point x="338" y="326" type="line"/>
      <point x="285" y="-4" type="line"/>
      <point x="383" y="3" type="line"/>
      <point x="387" y="110" type="line"/>
      <point x="428" y="363" type="line"/>
      <point x="429" y="376" type="line"/>
      <point x="430" y="425"/>
      <point x="390" y="456"/>
      <point x="341" y="466" type="curve"/>
    </contour>
    <contour>
      <point x="189" y="84" type="move"/>
    </contour>
    <contour>
      <point x="94" y="458" type="line"/>
      <point x="90" y="357" type="line"/>
      <point x="38" y="-4" type="line"/>
      <point x="134" y="3" type="line"/>
      <point x="138" y="111" type="line"/>
      <point x="188" y="465" type="line"/>
    </contour>
    <contour>
      <point x="213" y="0" type="move" name="bottom"/>
    </contour>
    <contour>
      <point x="269" y="460" type="move" name="top"/>
    </contour>
  </outline>
</glyph>
<glyph name="r" format="1">
  <advance width="338"/>
  <unicode hex="0072"/>
  <outline>
    <contour>
      <point x="259" y="407"/>
      <point x="212" y="343"/>
      <point x="171" y="266" type="curve"/>
      <point x="151" y="266" type="line"/>
      <point x="131" y="80" type="line"/>
      <point x="210" y="277"/>
      <point x="258" y="325"/>
      <point x="322" y="334" type="curve"/>
      <point x="333" y="332" type="line"/>
      <point x="341" y="337" type="line"/>
      <point x="359" y="463" type="line"/>
      <point x="333" y="465" type="line"/>
    </contour>
    <contour>
      <point x="96" y="458" type="line"/>
      <point x="92" y="357" type="line"/>
      <point x="40" y="-4" type="line"/>
      <point x="136" y="3" type="line"/>
      <point x="140" y="111" type="line"/>
      <point x="190" y="465" type="line"/>
    </contour>
    <contour>
      <point x="94" y="0" type="move" name="bottom"/>
    </contour>
    <contour>
      <point x="233" y="460" type="move" name="top"/>
    </contour>
  </outline>
</glyph>
<glyph name="t" format="1">
  <advance width="330"/>
  <unicode hex="0074"/>
  <outline>
    <contour>
      <point x="135" y="555" type="line"/>
      <point x="116" y="359" type="line"/>
      <point x="74" y="102" type="line"/>
      <point x="73" y="86" type="line"/>
      <point x="72" y="32"/>
      <point x="108" y="4"/>
      <point x="164" y="-5" type="curve"/>
      <point x="177" y="-4" type="line"/>
      <point x="222" y="22"/>
      <point x="264" y="59"/>
      <point x="307" y="114" type="curve"/>
      <point x="279" y="152" type="line"/>
      <point x="265" y="153" type="line"/>
      <point x="234" y="109"/>
      <point x="207" y="86"/>
      <point x="184" y="86" type="curve" smooth="yes"/>
      <point x="168" y="86"/>
      <point x="160" y="94"/>
      <point x="160" y="113" type="curve"/>
      <point x="162" y="130" type="line"/>
      <point x="235" y="585" type="line"/>
      <point x="226" y="591" type="line"/>
    </contour>
    <contour>
      <point x="55" y="451" type="line"/>
      <point x="48" y="397" type="line"/>
      <point x="54" y="390" type="line"/>
      <point x="331" y="390" type="line"/>
      <point x="337" y="443" type="line"/>
      <point x="330" y="451" type="line"/>
    </contour>
    <contour>
      <point x="178" y="0" type="move" name="bottom"/>
    </contour>
    <contour>
      <point x="167" y="231" type="move" name="center"/>
    </contour>
  </outline>
</glyph>
<glyph name="u" format="1">
  <advance width="478"/>
  <unicode hex="0075"/>
  <outline>
    <contour>
      <point x="95" y="459" type="line"/>
      <point x="89" y="353" type="line"/>
      <point x="48" y="100" type="line"/>
      <point x="47" y="86" type="line"/>
      <point x="46" y="37"/>
      <point x="85" y="7"/>
      <point x="135" y="-3" type="curve"/>
      <point x="146" y="-3" type="line"/>
      <point x="201" y="42"/>
      <point x="248" y="101"/>
      <point x="306" y="200" type="curve"/>
      <point x="325" y="200" type="line"/>
      <point x="346" y="373" type="line"/>
      <point x="260" y="190"/>
      <point x="192" y="100"/>
      <point x="155" y="100" type="curve" smooth="yes"/>
      <point x="144" y="100"/>
      <point x="136" y="106"/>
      <point x="137" y="124" type="curve"/>
      <point x="139" y="145" type="line"/>
      <point x="189" y="467" type="line"/>
    </contour>
    <contour>
      <point x="341" y="458" type="line"/>
      <point x="337" y="357" type="line"/>
      <point x="286" y="-4" type="line"/>
      <point x="382" y="3" type="line"/>
      <point x="385" y="111" type="line"/>
      <point x="436" y="465" type="line"/>
    </contour>
    <contour>
      <point x="404" y="10" type="move" name="ogonek"/>
    </contour>
    <contour>
      <point x="268" y="460" type="move" name="top"/>
    </contour>
  </outline>
</glyph>
<glyph name="y" format="1">
  <advance width="421"/>
  <unicode hex="0079"/>
  <outline>
    <contour>
      <point x="305" y="448" type="line"/>
      <point x="301" y="437" type="line"/>
      <point x="316" y="415"/>
      <point x="323" y="394"/>
      <point x="323" y="370" type="curve" smooth="yes"/>
      <point x="323" y="338"/>
      <point x="310" y="303"/>
      <point x="289" y="260" type="curve" smooth="yes"/>
      <point x="177" y="37" type="line" smooth="yes"/>
      <point x="121" y="-62"/>
      <point x="56" y="-105"/>
      <point x="-9" y="-105" type="curve" smooth="yes"/>
      <point x="-31" y="-105"/>
      <point x="-57" y="-100"/>
      <point x="-84" y="-91" type="curve"/>
      <point x="-94" y="-99" type="line"/>
      <point x="-89" y="-179" type="line"/>
      <point x="-62" y="-190"/>
      <point x="-33" y="-195"/>
      <point x="-6" y="-195" type="curve" smooth="yes"/>
      <point x="86" y="-195"/>
      <point x="160" y="-134"/>
      <point x="256" y="38" type="curve" smooth="yes"/>
      <point x="364" y="233" type="line" smooth="yes"/>
      <point x="396" y="290"/>
      <point x="414" y="340"/>
      <point x="414" y="387" type="curve" smooth="yes"/>
      <point x="414" y="414"/>
      <point x="408" y="441"/>
      <point x="393" y="467" type="curve"/>
    </contour>
    <contour>
      <point x="51" y="458" type="line"/>
      <point x="152" y="-47" type="line"/>
      <point x="255" y="108" type="line"/>
      <point x="198" y="108" type="line"/>
      <point x="155" y="383" type="line"/>
      <point x="145" y="465" type="line"/>
    </contour>
    <contour>
      <point x="212" y="460" type="move" name="top"/>
    </contour>
  </outline>
</glyph>
<glyph name="bar" format="1">
  <advance width="312"/>
  <unicode hex="007C"/>
  <outline>
    <contour>
      <point x="188" y="794" type="line"/>
      <point x="124" y="283" type="line"/>
      <point x="59" y="-252" type="line"/>
      <point x="65" y="-261" type="line"/>
      <point x="133" y="-257" type="line"/>
      <point x="200" y="289" type="line"/>
      <point x="263" y="793" type="line"/>
      <point x="257" y="799" type="line"/>
    </contour>
  </outline>
</glyph>
<glyph name="cent" format="1">
  <advance width="390"/>
  <unicode hex="00A2"/>
  <outline>
    <contour>
      <point x="153" y="71" type="line"/>
      <point x="125" y="-112" type="line" smooth="yes"/>
      <point x="131" y="-121" type="line" smooth="yes"/>
      <point x="179" y="-121" type="line" smooth="yes"/>
      <point x="210" y="71" type="line"/>
    </contour>
    <contour>
      <point x="219" y="472" type="line"/>
      <point x="153" y="71" type="line"/>
      <point x="210" y="71" type="line"/>
      <point x="277" y="472" type="line"/>
    </contour>
    <contour>
      <point x="249" y="653" type="line" smooth="yes"/>
      <point x="220" y="472" type="line"/>
      <point x="278" y="472" type="line"/>
      <point x="305" y="644" type="line" smooth="yes"/>
      <point x="297" y="653" type="line" smooth="yes"/>
    </contour>
    <contour>
      <point x="114" y="507"/>
      <point x="37" y="371"/>
      <point x="37" y="207" type="curve" smooth="yes"/>
      <point x="37" y="86"/>
      <point x="80" y="48"/>
      <point x="161" y="35" type="curve"/>
      <point x="174" y="35" type="line"/>
      <point x="239" y="51"/>
      <point x="285" y="83"/>
      <point x="330" y="156" type="curve"/>
      <point x="304" y="191" type="line"/>
      <point x="292" y="192" type="line"/>
      <point x="251" y="122"/>
      <point x="212" y="103"/>
      <point x="180" y="103" type="curve" smooth="yes"/>
      <point x="135" y="103"/>
      <point x="113" y="135"/>
      <point x="113" y="221" type="curve" smooth="yes"/>
      <point x="113" y="360"/>
      <point x="168" y="444"/>
      <point x="256" y="444" type="curve" smooth="yes"/>
      <point x="279" y="444"/>
      <point x="301" y="437"/>
      <point x="329" y="410" type="curve"/>
      <point x="346" y="413" type="line"/>
      <point x="368" y="475" type="line"/>
      <point x="362" y="486" type="line"/>
      <point x="290" y="507" type="line"/>
    </contour>
    <contour>
      <point x="182" y="42" type="move" name="bottom"/>
    </contour>
    <contour>
      <point x="209" y="502" type="move" name="top"/>
    </contour>
  </outline>
</glyph>
<glyph name="yen" format="1">
  <advance width="534"/>
  <unicode hex="00A5"/>
  <outline>
    <contour>
      <point x="34" y="165" type="line"/>
      <point x="26" y="123" type="line"/>
      <point x="30" y="118" type="line"/>
      <point x="481" y="118" type="line"/>
      <point x="489" y="159" type="line"/>
      <point x="484" y="165" type="line"/>
    </contour>
    <contour>
      <point x="51" y="298" type="line"/>
      <point x="43" y="258" type="line"/>
      <point x="46" y="252" type="line"/>
      <point x="219" y="252" type="line"/>
      <point x="218" y="298" type="line"/>
    </contour>
    <contour>
      <point x="328" y="298" type="line"/>
      <point x="315" y="252" type="line"/>
      <point x="497" y="252" type="line"/>
      <point x="506" y="294" type="line"/>
      <point x="502" y="298" type="line"/>
    </contour>
    <contour>
      <point x="436" y="499" type="line"/>
      <point x="418" y="466" type="line"/>
      <point x="269" y="260" type="line"/>
      <point x="262" y="260" type="line"/>
      <point x="176" y="469" type="line"/>
      <point x="169" y="499" type="line"/>
      <point x="82" y="499" type="line"/>
      <point x="234" y="127" type="line"/>
      <point x="261" y="127" type="line"/>
      <point x="521" y="499" type="line"/>
    </contour>
    <contour>
      <point x="218" y="213" type="line"/>
      <point x="211" y="142" type="line"/>
      <point x="190" y="0" type="line"/>
      <point x="270" y="0" type="line"/>
      <point x="285" y="142" type="line"/>
      <point x="296" y="213" type="line"/>
    </contour>
    <contour>
      <point x="302" y="501" type="move" name="top"/>
    </contour>
  </outline>
</glyph>
<glyph name="softhyphen" format="1">
  <advance width="306"/>
  <unicode hex="00AD"/>
  <outline>
    <contour>
      <point x="34" y="272" type="line"/>
      <point x="26" y="210" type="line"/>
      <point x="34" y="202" type="line"/>
      <point x="278" y="237" type="line"/>
      <point x="286" y="298" type="line"/>
      <point x="278" y="306" type="line"/>
    </contour>
  </outline>
</glyph>
<glyph name="macron" format="1">
  <advance width="390"/>
  <unicode hex="00AF"/>
  <outline>
    <contour>
      <point x="99" y="643" type="line"/>
      <point x="94" y="588" type="line"/>
      <point x="101" y="580" type="line"/>
      <point x="383" y="580" type="line"/>
      <point x="388" y="636" type="line"/>
      <point x="382" y="643" type="line"/>
    </contour>
    <contour>
      <point x="223" y="460" type="move" name="_top"/>
    </contour>
  </outline>
</glyph>
<glyph name="acute" format="1">
  <advance width="390"/>
  <unicode hex="00B4"/>
  <outline>
    <contour>
      <point x="245" y="651"/>
      <point x="191" y="606"/>
      <point x="133" y="558" type="curve"/>
      <point x="158" y="520" type="line"/>
      <point x="168" y="519" type="line"/>
      <point x="228" y="558"/>
      <point x="284" y="598"/>
      <point x="347" y="643" type="curve"/>
      <point x="349" y="653" type="line"/>
      <point x="313" y="705" type="line"/>
      <point x="303" y="706" type="line"/>
    </contour>
    <contour>
      <point x="221" y="460" type="move" name="_top"/>
    </contour>
  </outline>
</glyph>
<glyph name="thorn" format="1">
  <advance width="454"/>
  <unicode hex="00FE"/>
  <outline>
    <contour>
      <point x="319" y="468" type="line"/>
      <point x="266" y="416"/>
      <point x="219" y="349"/>
      <point x="178" y="279" type="curve"/>
      <point x="155" y="279" type="line"/>
      <point x="139" y="101" type="line"/>
      <point x="210" y="280"/>
      <point x="285" y="368"/>
      <point x="308" y="368" type="curve" smooth="yes"/>
      <point x="321" y="368"/>
      <point x="335" y="349"/>
      <point x="335" y="279" type="curve" smooth="yes"/>
      <point x="335" y="161"/>
      <point x="287" y="67"/>
      <point x="205" y="67" type="curve"/>
      <point x="111" y="93" type="line"/>
      <point x="65" y="18" type="line"/>
      <point x="180" y="-8" type="line"/>
      <point x="186" y="-8" type="line"/>
      <point x="344" y="22"/>
      <point x="421" y="173"/>
      <point x="421" y="307" type="curve" smooth="yes"/>
      <point x="421" y="387"/>
      <point x="392" y="440"/>
      <point x="335" y="468" type="curve"/>
    </contour>
    <contour>
      <point x="131" y="697" type="line"/>
      <point x="127" y="595" type="line"/>
      <point x="17" y="-192" type="line"/>
      <point x="113" y="-185" type="line"/>
      <point x="117" y="-74" type="line"/>
      <point x="225" y="703" type="line"/>
    </contour>
  </outline>
</glyph>
<glyph name="dcroat" format="1">
  <advance width="459"/>
  <unicode hex="0111"/>
  <outline>
    <contour>
      <point x="217" y="609" type="line"/>
      <point x="212" y="559" type="line"/>
      <point x="219" y="552" type="line"/>
      <point x="500" y="552" type="line"/>
      <point x="505" y="601" type="line"/>
      <point x="498" y="609" type="line"/>
    </contour>
    <component base="d"/>
  </outline>
</glyph>
<glyph name="hbar" format="1">
  <advance width="535"/>
  <unicode hex="0127"/>
  <outline>
    <contour>
      <point x="86" y="609" type="line"/>
      <point x="82" y="559" type="line"/>
      <point x="89" y="552" type="line"/>
      <point x="370" y="552" type="line"/>
      <point x="374" y="601" type="line"/>
      <point x="367" y="609" type="line"/>
    </contour>
    <component base="h" xOffset="41"/>
  </outline>
</glyph>
<glyph name="iogonek" format="1">
  <advance width="225"/>
  <unicode hex="012F"/>
  <outline>
    <contour>
      <point x="56" y="19" type="line"/>
      <point x="-8" y="-57"/>
      <point x="-27" y="-87"/>
      <point x="-27" y="-121" type="curve" smooth="yes"/>
      <point x="-27" y="-167"/>
      <point x="5" y="-197"/>
      <point x="48" y="-197" type="curve" smooth="yes"/>
      <point x="82" y="-197"/>
      <point x="110" y="-178"/>
      <point x="139" y="-149" type="curve"/>
      <point x="125" y="-102" type="line"/>
      <point x="120" y="-102" type="line"/>
      <point x="102" y="-124"/>
      <point x="81" y="-135"/>
      <point x="62" y="-135" type="curve" smooth="yes"/>
      <point x="45" y="-135"/>
      <point x="33" y="-126"/>
      <point x="33" y="-106" type="curve" smooth="yes"/>
      <point x="33" y="-85"/>
      <point x="48" y="-60"/>
      <point x="112" y="14" type="curve"/>
    </contour>
    <component base="i"/>
  </outline>
</glyph>
<glyph name="dotlessi" format="1">
  <advance width="225"/>
  <unicode hex="0131"/>
  <outline>
    <contour>
      <point x="93" y="458" type="line"/>
      <point x="89" y="357" type="line"/>
      <point x="38" y="-4" type="line"/>
      <point x="133" y="3" type="line"/>
      <point x="137" y="111" type="line"/>
      <point x="187" y="465" type="line"/>
    </contour>
    <contour>
      <point x="176" y="10" type="move" name="ogonek"/>
    </contour>
    <contour>
      <point x="139" y="460" type="move" name="top"/>
    </contour>
  </outline>
</glyph>
<glyph name="kgreenlandic" format="1">
  <advance width="480"/>
  <unicode hex="0138"/>
  <outline>
    <contour>
      <point x="346" y="465" type="line"/>
      <point x="285" y="423"/>
      <point x="232" y="352"/>
      <point x="170" y="262" type="curve"/>
      <point x="154" y="262" type="line"/>
      <point x="130" y="87" type="line"/>
      <point x="225" y="285"/>
      <point x="298" y="363"/>
      <point x="338" y="363" type="curve" smooth="yes"/>
      <point x="348" y="363"/>
      <point x="360" y="357"/>
      <point x="360" y="335" type="curve" smooth="yes"/>
      <point x="360" y="289"/>
      <point x="314" y="242"/>
      <point x="233" y="191" type="curve"/>
      <point x="230" y="176" type="line"/>
      <point x="261" y="115"/>
      <point x="294" y="52"/>
      <point x="330" y="-8" type="curve"/>
      <point x="340" y="-12" type="line"/>
      <point x="420" y="2" type="line"/>
      <point x="423" y="9" type="line"/>
      <point x="385" y="65"/>
      <point x="349" y="123"/>
      <point x="315" y="182" type="curve"/>
      <point x="400" y="234"/>
      <point x="453" y="294"/>
      <point x="453" y="361" type="curve" smooth="yes"/>
      <point x="453" y="423"/>
      <point x="415" y="455"/>
      <point x="360" y="466" type="curve"/>
    </contour>
    <component base="dotlessi"/>
  </outline>
</glyph>
<glyph name="Tcedilla" format="1">
  <advance width="475"/>
  <unicode hex="0162"/>
  <outline>
    <contour>
      <point x="189" y="14" type="line"/>
      <point x="169" y="-69" type="line"/>
      <point x="214" y="-97" type="line" smooth="yes"/>
      <point x="223" y="-103"/>
      <point x="230" y="-109"/>
      <point x="230" y="-121" type="curve" smooth="yes"/>
      <point x="230" y="-137"/>
      <point x="221" y="-146"/>
      <point x="204" y="-146" type="curve" smooth="yes"/>
      <point x="183" y="-146"/>
      <point x="167" y="-134"/>
      <point x="153" y="-116" type="curve"/>
      <point x="147" y="-118" type="line"/>
      <point x="139" y="-159" type="line"/>
      <point x="156" y="-174"/>
      <point x="179" y="-189"/>
      <point x="209" y="-189" type="curve" smooth="yes"/>
      <point x="254" y="-189"/>
      <point x="287" y="-162"/>
      <point x="287" y="-123" type="curve" smooth="yes"/>
      <point x="287" y="-101"/>
      <point x="276" y="-84"/>
      <point x="250" y="-68" type="curve" smooth="yes"/>
      <point x="220" y="-49" type="line"/>
      <point x="236" y="14" type="line"/>
    </contour>
    <component base="T"/>
  </outline>
</glyph>
<glyph name="Uogonek" format="1">
  <advance width="605"/>
  <unicode hex="0172"/>
  <outline>
    <contour>
      <point x="389" y="60" type="line"/>
      <point x="322" y="-45" type="line" smooth="yes"/>
      <point x="306" y="-69"/>
      <point x="299" y="-92"/>
      <point x="299" y="-114" type="curve" smooth="yes"/>
      <point x="299" y="-163"/>
      <point x="330" y="-197"/>
      <point x="378" y="-197" type="curve" smooth="yes"/>
      <point x="412" y="-197"/>
      <point x="443" y="-179"/>
      <point x="475" y="-145" type="curve"/>
      <point x="463" y="-101" type="line"/>
      <point x="457" y="-101" type="line"/>
      <point x="437" y="-125"/>
      <point x="412" y="-136"/>
      <point x="391" y="-136" type="curve" smooth="yes"/>
      <point x="368" y="-136"/>
      <point x="357" y="-123"/>
      <point x="357" y="-103" type="curve" smooth="yes"/>
      <point x="357" y="-89"/>
      <point x="363" y="-71"/>
      <point x="374" y="-54" type="curve" smooth="yes"/>
      <point x="440" y="60" type="line"/>
    </contour>
    <component base="U"/>
  </outline>
</glyph>
<glyph name="uogonek" format="1">
  <advance width="480"/>
  <unicode hex="0173"/>
  <outline>
    <contour>
      <point x="301" y="20" type="line"/>
      <point x="231" y="-55"/>
      <point x="211" y="-85"/>
      <point x="211" y="-121" type="curve" smooth="yes"/>
      <point x="211" y="-168"/>
      <point x="244" y="-197"/>
      <point x="287" y="-197" type="curve" smooth="yes"/>
      <point x="322" y="-197"/>
      <point x="349" y="-177"/>
      <point x="377" y="-149" type="curve"/>
      <point x="363" y="-102" type="line"/>
      <point x="358" y="-102" type="line"/>
      <point x="340" y="-124"/>
      <point x="321" y="-135"/>
      <point x="302" y="-135" type="curve" smooth="yes"/>
      <point x="284" y="-135"/>
      <point x="271" y="-126"/>
      <point x="271" y="-106" type="curve" smooth="yes"/>
      <point x="271" y="-84"/>
      <point x="287" y="-60"/>
      <point x="355" y="15" type="curve"/>
    </contour>
    <component base="u"/>
  </outline>
</glyph>
<glyph name="ohorn" format="1">
  <advance width="441"/>
  <unicode hex="01A1"/>
  <outline>
    <contour>
      <point x="429" y="589"/>
      <point x="412" y="581"/>
      <point x="394" y="566" type="curve"/>
      <point x="391" y="557" type="line"/>
      <point x="412" y="537"/>
      <point x="422" y="517"/>
      <point x="422" y="494" type="curve" smooth="yes"/>
      <point x="422" y="462"/>
      <point x="402" y="444"/>
      <point x="367" y="444" type="curve" smooth="yes"/>
      <point x="340" y="444"/>
      <point x="318" y="459"/>
      <point x="280" y="469" type="curve"/>
      <point x="372" y="391" type="line"/>
      <point x="439" y="392"/>
      <point x="502" y="440"/>
      <point x="502" y="507" type="curve" smooth="yes"/>
      <point x="502" y="555"/>
      <point x="470" y="589"/>
      <point x="445" y="589" type="curve" smooth="yes"/>
    </contour>
    <contour>
      <point x="125" y="461"/>
      <point x="37" y="335"/>
      <point x="37" y="155" type="curve" smooth="yes"/>
      <point x="37" y="54"/>
      <point x="79" y="7"/>
      <point x="158" y="-8" type="curve"/>
      <point x="168" y="-9" type="line"/>
      <point x="313" y="2"/>
      <point x="399" y="125"/>
      <point x="399" y="313" type="curve" smooth="yes"/>
      <point x="399" y="361"/>
      <point x="387" y="398"/>
      <point x="365" y="424" type="curve"/>
      <point x="280" y="469" type="line"/>
      <point x="271" y="469" type="line"/>
    </contour>
    <contour>
      <point x="291" y="395"/>
      <point x="308" y="370"/>
      <point x="308" y="306" type="curve" smooth="yes"/>
      <point x="308" y="157"/>
      <point x="268" y="63"/>
      <point x="181" y="63" type="curve" smooth="yes"/>
      <point x="141" y="63"/>
      <point x="125" y="90"/>
      <point x="125" y="155" type="curve" smooth="yes"/>
      <point x="125" y="303"/>
      <point x="165" y="395"/>
      <point x="252" y="395" type="curve" smooth="yes"/>
    </contour>
    <contour>
      <point x="252" y="460" type="move" name="top"/>
    </contour>
  </outline>
</glyph>
<glyph name="uhorn" format="1">
  <advance width="482"/>
  <unicode hex="01B0"/>
  <outline>
    <contour>
      <point x="95" y="459" type="line"/>
      <point x="89" y="353" type="line"/>
      <point x="48" y="100" type="line"/>
      <point x="47" y="86" type="line"/>
      <point x="46" y="37"/>
      <point x="85" y="7"/>
      <point x="135" y="-3" type="curve"/>
      <point x="146" y="-3" type="line"/>
      <point x="202" y="42"/>
      <point x="248" y="102"/>
      <point x="307" y="203" type="curve"/>
      <point x="326" y="203" type="line"/>
      <point x="347" y="382" type="line"/>
      <point x="260" y="189"/>
      <point x="192" y="100"/>
      <point x="155" y="100" type="curve" smooth="yes"/>
      <point x="144" y="100"/>
      <point x="137" y="108"/>
      <point x="138" y="132" type="curve"/>
      <point x="139" y="145" type="line"/>
      <point x="189" y="467" type="line"/>
    </contour>
    <contour>
      <point x="342" y="458" type="line"/>
      <point x="338" y="357" type="line"/>
      <point x="287" y="-4" type="line"/>
      <point x="382" y="3" type="line"/>
      <point x="386" y="111" type="line"/>
      <point x="436" y="465" type="line"/>
    </contour>
    <contour>
      <point x="455" y="615"/>
      <point x="438" y="606"/>
      <point x="420" y="592" type="curve"/>
      <point x="418" y="583" type="line"/>
      <point x="439" y="562"/>
      <point x="449" y="540"/>
      <point x="449" y="520" type="curve" smooth="yes"/>
      <point x="449" y="489"/>
      <point x="427" y="471"/>
      <point x="378" y="464" type="curve" smooth="yes"/>
      <point x="342" y="458" type="line"/>
      <point x="407" y="417" type="line"/>
      <point x="481" y="438"/>
      <point x="528" y="480"/>
      <point x="528" y="535" type="curve" smooth="yes"/>
      <point x="528" y="581"/>
      <point x="497" y="615"/>
      <point x="471" y="615" type="curve" smooth="yes"/>
    </contour>
    <contour>
      <point x="268" y="460" type="move" name="top"/>
    </contour>
  </outline>
</glyph>
<glyph name="oogonek" format="1">
  <advance width="436"/>
  <unicode hex="01EB"/>
  <outline>
    <contour>
      <point x="229" y="52" type="line"/>
      <point x="167" y="-38" type="line" smooth="yes"/>
      <point x="148" y="-65"/>
      <point x="140" y="-91"/>
      <point x="140" y="-115" type="curve" smooth="yes"/>
      <point x="140" y="-163"/>
      <point x="173" y="-198"/>
      <point x="224" y="-198" type="curve" smooth="yes"/>
      <point x="259" y="-198"/>
      <point x="289" y="-180"/>
      <point x="323" y="-147" type="curve"/>
      <point x="312" y="-101" type="line"/>
      <point x="306" y="-101" type="line"/>
      <point x="284" y="-123"/>
      <point x="261" y="-136"/>
      <point x="239" y="-136" type="curve" smooth="yes"/>
      <point x="213" y="-136"/>
      <point x="200" y="-120"/>
      <point x="200" y="-97" type="curve" smooth="yes"/>
      <point x="200" y="-82"/>
      <point x="206" y="-66"/>
      <point x="217" y="-49" type="curve" smooth="yes"/>
      <point x="283" y="52" type="line"/>
    </contour>
    <component base="o"/>
    <contour>
      <point x="324" y="9" type="move" name="_ogonek"/>
    </contour>
  </outline>
</glyph>
<glyph name="Aringacute" format="1">
  <advance width="567"/>
  <unicode hex="01FA"/>
  <outline>
    <contour>
      <point x="295" y="640" type="line"/>
      <point x="-11" y="0" type="line"/>
      <point x="86" y="0" type="line"/>
      <point x="111" y="74" type="line"/>
      <point x="326" y="537" type="line"/>
      <point x="334" y="537" type="line"/>
      <point x="415" y="69" type="line"/>
      <point x="421" y="0" type="line"/>
      <point x="520" y="0" type="line"/>
      <point x="395" y="640" type="line"/>
    </contour>
    <contour>
      <point x="285" y="240" type="line"/>
      <point x="138" y="243" type="line"/>
      <point x="128" y="161" type="line"/>
      <point x="268" y="164" type="line"/>
      <point x="421" y="161" type="line"/>
      <point x="430" y="243" type="line"/>
    </contour>
    <contour>
      <point x="294" y="293" type="move"/>
    </contour>
    <component base="ringacute" xOffset="109" yOffset="85"/>
  </outline>
</glyph>
<glyph name="dotaccent" format="1">
  <advance width="390"/>
  <unicode hex="02D9"/>
  <outline>
    <contour>
      <point x="210" y="674"/>
      <point x="189" y="652"/>
      <point x="189" y="618" type="curve" smooth="yes"/>
      <point x="189" y="585"/>
      <point x="208" y="565"/>
      <point x="241" y="565" type="curve" smooth="yes"/>
      <point x="275" y="565"/>
      <point x="296" y="587"/>
      <point x="296" y="622" type="curve" smooth="yes"/>
      <point x="296" y="654"/>
      <point x="277" y="674"/>
      <point x="245" y="674" type="curve" smooth="yes"/>
    </contour>
    <contour>
      <point x="223" y="460" type="move" name="_top"/>
    </contour>
  </outline>
</glyph>
<glyph name="ring" format="1">
  <advance width="390"/>
  <unicode hex="02DA"/>
  <outline>
    <contour>
      <point x="188" y="706"/>
      <point x="155" y="673"/>
      <point x="155" y="619" type="curve" smooth="yes"/>
      <point x="155" y="563"/>
      <point x="190" y="533"/>
      <point x="241" y="533" type="curve" smooth="yes"/>
      <point x="292" y="533"/>
      <point x="331" y="565"/>
      <point x="331" y="622" type="curve" smooth="yes"/>
      <point x="331" y="671"/>
      <point x="301" y="706"/>
      <point x="244" y="706" type="curve" smooth="yes"/>
    </contour>
    <contour>
      <point x="272" y="661"/>
      <point x="287" y="644"/>
      <point x="287" y="618" type="curve" smooth="yes"/>
      <point x="287" y="590"/>
      <point x="269" y="577"/>
      <point x="243" y="577" type="curve" smooth="yes"/>
      <point x="216" y="577"/>
      <point x="199" y="591"/>
      <point x="199" y="620" type="curve" smooth="yes"/>
      <point x="199" y="646"/>
      <point x="213" y="661"/>
      <point x="242" y="661" type="curve" smooth="yes"/>
    </contour>
    <contour>
      <point x="223" y="460" type="move" name="_top"/>
    </contour>
  </outline>
</glyph>
<glyph name="ogonek" format="1">
  <advance width="390"/>
  <unicode hex="02DB"/>
  <outline>
    <contour>
      <point x="148" y="53" type="line"/>
      <point x="86" y="-37" type="line" smooth="yes"/>
      <point x="67" y="-64"/>
      <point x="59" y="-90"/>
      <point x="59" y="-114" type="curve" smooth="yes"/>
      <point x="59" y="-162"/>
      <point x="92" y="-197"/>
      <point x="143" y="-197" type="curve" smooth="yes"/>
      <point x="178" y="-197"/>
      <point x="208" y="-179"/>
      <point x="242" y="-146" type="curve"/>
      <point x="231" y="-100" type="line"/>
      <point x="225" y="-100" type="line"/>
      <point x="203" y="-122"/>
      <point x="180" y="-135"/>
      <point x="158" y="-135" type="curve" smooth="yes"/>
      <point x="132" y="-135"/>
      <point x="119" y="-119"/>
      <point x="119" y="-96" type="curve" smooth="yes"/>
      <point x="119" y="-81"/>
      <point x="125" y="-65"/>
      <point x="136" y="-48" type="curve" smooth="yes"/>
      <point x="202" y="53" type="line"/>
    </contour>
    <contour>
      <point x="242" y="10" type="move" name="_ogonek"/>
    </contour>
  </outline>
</glyph>
<glyph name="pi" format="1">
  <advance width="633"/>
  <unicode hex="03C0"/>
  <outline>
    <contour>
      <point x="505" y="500" type="line"/>
      <point x="134" y="500" type="line"/>
      <point x="118" y="494" type="line"/>
      <point x="24" y="401" type="line"/>
      <point x="23" y="390" type="line"/>
      <point x="47" y="353" type="line"/>
      <point x="58" y="353" type="line"/>
      <point x="98" y="389"/>
      <point x="128" y="422"/>
      <point x="151" y="422" type="curve" smooth="yes"/>
      <point x="425" y="422" type="line"/>
      <point x="384" y="98" type="line" smooth="yes"/>
      <point x="375" y="20"/>
      <point x="409" y="-5"/>
      <point x="455" y="-5" type="curve" smooth="yes"/>
      <point x="473" y="-5"/>
      <point x="495" y="2"/>
      <point x="519" y="15" type="curve"/>
      <point x="537" y="70" type="line"/>
      <point x="529" y="75" type="line"/>
      <point x="517" y="69"/>
      <point x="503" y="65"/>
      <point x="493" y="65" type="curve" smooth="yes"/>
      <point x="474" y="65"/>
      <point x="468" y="79"/>
      <point x="472" y="110" type="curve" smooth="yes"/>
      <point x="513" y="422" type="line"/>
      <point x="609" y="421" type="line"/>
      <point x="626" y="493" type="line"/>
      <point x="620" y="502" type="line"/>
    </contour>
    <contour>
      <point x="186" y="473" type="line"/>
      <point x="154" y="194" type="line"/>
      <point x="116" y="-92" type="line"/>
      <point x="209" y="-92" type="line"/>
      <point x="244" y="202" type="line"/>
      <point x="277" y="478" type="line"/>
    </contour>
  </outline>
</glyph>
<glyph name="adotbelow" format="1">
  <advance width="447"/>
  <unicode hex="1EA1"/>
  <outline>
    <component base="a"/>
    <component base="dotbelowcomb" xOffset="46"/>
    <contour>
      <point x="257" y="460" type="move" name="top"/>
    </contour>
  </outline>
</glyph>
<glyph name="odotbelow" format="1">
  <advance width="420"/>
  <unicode hex="1ECD"/>
  <outline>
    <component base="o"/>
    <component base="dotbelowcomb" xOffset="12"/>
    <contour>
      <point x="256" y="460" type="move" name="top"/>
    </contour>
  </outline>
</glyph>
<glyph name="endash" format="1">
  <advance width="474"/>
  <unicode hex="2013"/>
  <outline>
    <contour>
      <point x="-2" y="290" type="line"/>
      <point x="-14" y="230" type="line"/>
      <point x="-8" y="223" type="line"/>
      <point x="485" y="223" type="line"/>
      <point x="496" y="283" type="line"/>
      <point x="490" y="290" type="line"/>
    </contour>
  </outline>
</glyph>
<glyph name="dagger" format="1">
  <advance width="489"/>
  <unicode hex="2020"/>
  <outline>
    <contour>
      <point x="253" y="585" type="line"/>
      <point x="216" y="283" type="line"/>
      <point x="170" y="-86" type="line"/>
      <point x="176" y="-94" type="line"/>
      <point x="238" y="-90" type="line"/>
      <point x="284" y="287" type="line"/>
      <point x="322" y="585" type="line"/>
      <point x="316" y="590" type="line"/>
    </contour>
    <contour>
      <point x="69" y="406" type="line"/>
      <point x="56" y="347" type="line"/>
      <point x="62" y="339" type="line"/>
      <point x="456" y="339" type="line"/>
      <point x="469" y="399" type="line"/>
      <point x="463" y="406" type="line"/>
    </contour>
  </outline>
</glyph>
<glyph name="daggerdbl" format="1">
  <advance width="488"/>
  <unicode hex="2021"/>
  <outline>
    <contour>
      <point x="252" y="585" type="line"/>
      <point x="215" y="283" type="line"/>
      <point x="170" y="-86" type="line"/>
      <point x="176" y="-94" type="line"/>
      <point x="237" y="-90" type="line"/>
      <point x="284" y="287" type="line"/>
      <point x="321" y="585" type="line"/>
      <point x="316" y="590" type="line"/>
    </contour>
    <contour>
      <point x="36" y="145" type="line"/>
      <point x="23" y="86" type="line"/>
      <point x="29" y="79" type="line"/>
      <point x="424" y="79" type="line"/>
      <point x="436" y="138" type="line"/>
      <point x="430" y="145" type="line"/>
    </contour>
    <contour>
      <point x="69" y="413" type="line"/>
      <point x="56" y="354" type="line"/>
      <point x="62" y="347" type="line"/>
      <point x="457" y="347" type="line"/>
      <point x="469" y="406" type="line"/>
      <point x="463" y="413" type="line"/>
    </contour>
  </outline>
</glyph>
<glyph name="perthousand" format="1">
  <advance width="1215"/>
  <unicode hex="2030"/>
  <outline>
    <contour>
      <point x="162" y="516" type="move"/>
    </contour>
    <component base="fraction" xOffset="376"/>
    <component base="zero.dnom" xOffset="462" yScale="0.92"/>
    <component base="zero.dnom" xOffset="836" yScale="0.92"/>
    <component base="zero.numr" xOffset="2" yOffset="55" yScale="0.92"/>
  </outline>
</glyph>
<glyph name="franc" format="1">
  <advance width="405"/>
  <unicode hex="20A3"/>
  <outline>
    <contour>
      <point x="119" y="499" type="line"/>
      <point x="80" y="150" type="line"/>
      <point x="58" y="0" type="line"/>
      <point x="139" y="0" type="line"/>
      <point x="155" y="157" type="line"/>
      <point x="200" y="499" type="line"/>
    </contour>
    <contour>
      <point x="13" y="139" type="line"/>
      <point x="5" y="99" type="line"/>
      <point x="8" y="95" type="line"/>
      <point x="264" y="95" type="line"/>
      <point x="271" y="134" type="line"/>
      <point x="268" y="139" type="line"/>
    </contour>
    <contour>
      <point x="259" y="279" type="line"/>
      <point x="150" y="279" type="line"/>
      <point x="140" y="222" type="line"/>
      <point x="143" y="217" type="line"/>
      <point x="246" y="217" type="line"/>
      <point x="343" y="215" type="line"/>
      <point x="356" y="273" type="line"/>
      <point x="352" y="281" type="line"/>
    </contour>
    <contour>
      <point x="173" y="499" type="line"/>
      <point x="163" y="442" type="line"/>
      <point x="165" y="437" type="line"/>
      <point x="287" y="437" type="line"/>
      <point x="414" y="434" type="line"/>
      <point x="428" y="492" type="line"/>
      <point x="423" y="499" type="line"/>
    </contour>
  </outline>
</glyph>
<glyph name="trademark" format="1">
  <advance width="585"/>
  <unicode hex="2122"/>
  <outline>
    <contour>
      <point x="500" y="641" type="line"/>
      <point x="485" y="605" type="line"/>
      <point x="427" y="497" type="line"/>
      <point x="424" y="497" type="line"/>
      <point x="396" y="606" type="line"/>
      <point x="390" y="641" type="line"/>
      <point x="329" y="641" type="line"/>
      <point x="274" y="405" type="line"/>
      <point x="318" y="405" type="line"/>
      <point x="333" y="482" type="line"/>
      <point x="353" y="563" type="line"/>
      <point x="357" y="563" type="line"/>
      <point x="394" y="429" type="line"/>
      <point x="434" y="429" type="line"/>
      <point x="509" y="563" type="line"/>
      <point x="513" y="563" type="line"/>
      <point x="512" y="476" type="line"/>
      <point x="507" y="405" type="line"/>
      <point x="553" y="405" type="line"/>
      <point x="559" y="641" type="line"/>
    </contour>
    <contour>
      <point x="146" y="634" type="line"/>
      <point x="128" y="475" type="line"/>
      <point x="117" y="405" type="line"/>
      <point x="168" y="405" type="line"/>
      <point x="175" y="479" type="line"/>
      <point x="196" y="634" type="line"/>
    </contour>
    <contour>
      <point x="81" y="641" type="line"/>
      <point x="73" y="603" type="line"/>
      <point x="75" y="599" type="line"/>
      <point x="124" y="601" type="line"/>
      <point x="210" y="601" type="line"/>
      <point x="257" y="599" type="line"/>
      <point x="264" y="636" type="line"/>
      <point x="262" y="641" type="line"/>
    </contour>
  </outline>
</glyph>
<glyph name="arrowdown" format="1">
  <advance width="522"/>
  <unicode hex="2193"/>
  <outline>
    <contour>
      <point x="440" y="243" type="line"/>
      <point x="261" y="71" type="line"/>
      <point x="82" y="243" type="line"/>
      <point x="68" y="243" type="line"/>
      <point x="54" y="190" type="line"/>
      <point x="254" y="-5" type="line"/>
      <point x="269" y="-5" type="line"/>
      <point x="468" y="190" type="line"/>
      <point x="454" y="243" type="line"/>
    </contour>
    <contour>
      <point x="226" y="460" type="line"/>
      <point x="231" y="52" type="line"/>
      <point x="290" y="52" type="line"/>
      <point x="295" y="463" type="line"/>
      <point x="233" y="467" type="line"/>
    </contour>
  </outline>
</glyph>
<glyph name="product" format="1">
  <advance width="675"/>
  <unicode hex="220F"/>
  <outline>
    <contour>
      <point x="106" y="642" type="line"/>
      <point x="89" y="569" type="line"/>
      <point x="95" y="561" type="line"/>
      <point x="212" y="563" type="line"/>
      <point x="547" y="563" type="line"/>
      <point x="661" y="561" type="line"/>
      <point x="678" y="633" type="line"/>
      <point x="672" y="642" type="line"/>
    </contour>
    <component base="I" xOffset="17"/>
    <component base="I" xOffset="383"/>
  </outline>
</glyph>
<glyph name="fi" format="1">
  <advance width="515"/>
  <unicode hex="FB01"/>
  <outline>
    <contour>
      <point x="215" y="704"/>
      <point x="157" y="633"/>
      <point x="139" y="507" type="curve"/>
      <point x="96" y="190" type="line"/>
      <point x="51" y="-124" type="line"/>
      <point x="147" y="-117" type="line"/>
      <point x="151" y="-9" type="line"/>
      <point x="181" y="201" type="line"/>
      <point x="226" y="531" type="line"/>
      <point x="236" y="599"/>
      <point x="269" y="634"/>
      <point x="316" y="634" type="curve" smooth="yes"/>
      <point x="348" y="634"/>
      <point x="379" y="621"/>
      <point x="415" y="597" type="curve"/>
      <point x="429" y="600" type="line"/>
      <point x="452" y="673" type="line"/>
      <point x="449" y="681" type="line"/>
      <point x="334" y="704" type="line"/>
    </contour>
    <contour>
      <point x="58" y="451" type="line"/>
      <point x="50" y="397" type="line"/>
      <point x="55" y="390" type="line"/>
      <point x="432" y="390" type="line"/>
      <point x="439" y="443" type="line"/>
      <point x="433" y="451" type="line"/>
    </contour>
    <contour>
      <point x="380" y="449" type="line"/>
      <point x="376" y="357" type="line"/>
      <point x="325" y="-4" type="line"/>
      <point x="420" y="3" type="line"/>
      <point x="424" y="111" type="line"/>
      <point x="474" y="461" type="line"/>
      <point x="467" y="467" type="line"/>
    </contour>
    <contour>
      <point x="431" y="460" type="move" name="_top"/>
    </contour>
    <contour>
      <point x="468" y="10" type="move" name="ogonek"/>
    </contour>
    <contour>
      <point x="431" y="460" type="move" name="top"/>
    </contour>
  </outline>
</glyph>
<glyph name="D.ss01" format="1">
  <advance width="541"/>
  <outline>
    <contour>
      <point x="119" y="493" type="line"/>
      <point x="185" y="417" type="line"/>
      <point x="210" y="420"/>
      <point x="274" y="422"/>
      <point x="294" y="422" type="curve" smooth="yes"/>
      <point x="372" y="422"/>
      <point x="412" y="380"/>
      <point x="412" y="286" type="curve" smooth="yes"/>
      <point x="412" y="141"/>
      <point x="352" y="72"/>
      <point x="250" y="72" type="curve" smooth="yes"/>
      <point x="230" y="72"/>
      <point x="166" y="76"/>
      <point x="140" y="79" type="curve"/>
      <point x="58" y="6" type="line"/>
      <point x="105" y="3"/>
      <point x="190" y="1"/>
      <point x="225" y="1" type="curve" smooth="yes"/>
      <point x="404" y="1"/>
      <point x="505" y="116"/>
      <point x="505" y="304" type="curve" smooth="yes"/>
      <point x="505" y="426"/>
      <point x="436" y="496"/>
      <point x="310" y="496" type="curve"/>
    </contour>
    <contour>
      <point x="-119" y="39" type="line"/>
      <point x="-124" y="0" type="line"/>
      <point x="610" y="0" type="line"/>
      <point x="616" y="39" type="line"/>
    </contour>
    <contour>
      <point x="119" y="493" type="line"/>
      <point x="80" y="152" type="line"/>
      <point x="58" y="6" type="line"/>
      <point x="146" y="6" type="line"/>
      <point x="162" y="160" type="line"/>
      <point x="208" y="493" type="line"/>
    </contour>
    <contour>
      <point x="-61" y="501" type="line"/>
      <point x="-66" y="461" type="line"/>
      <point x="668" y="461" type="line"/>
      <point x="673" y="501" type="line"/>
    </contour>
    <contour>
      <point x="261" y="250" type="move" name="center"/>
    </contour>
    <contour>
      <point x="290" y="493" type="move" name="top"/>
    </contour>
  </outline>
</glyph>
<glyph name="L.ss01" format="1">
  <advance width="359"/>
  <outline>
    <contour>
      <point x="113" y="499" type="line"/>
      <point x="74" y="160" type="line"/>
      <point x="51" y="2" type="line"/>
      <point x="311" y="2" type="line"/>
      <point x="322" y="78" type="line"/>
      <point x="277" y="78" type="line"/>
      <point x="262" y="78" type="line"/>
      <point x="146" y="78" type="line"/>
      <point x="158" y="168" type="line"/>
      <point x="204" y="499" type="line"/>
    </contour>
    <contour>
      <point x="-122" y="39" type="line"/>
      <point x="-127" y="0" type="line"/>
      <point x="428" y="0" type="line"/>
      <point x="433" y="39" type="line"/>
    </contour>
    <contour>
      <point x="-64" y="501" type="line"/>
      <point x="-69" y="461" type="line"/>
      <point x="487" y="461" type="line"/>
      <point x="492" y="501" type="line"/>
    </contour>
  </outline>
</glyph>
<glyph name="ampersand.sc" format="1">
  <advance width="745"/>
  <outline>
    <contour>
      <point x="628" y="711" type="line"/>
      <point x="538" y="509"/>
      <point x="315" y="321"/>
      <point x="77" y="239" type="curve"/>
      <point x="103" y="177" type="line"/>
      <point x="344" y="262"/>
      <point x="603" y="478"/>
      <point x="676" y="646" type="curve"/>
      <point x="669" y="671"/>
      <point x="656" y="692"/>
      <point x="637" y="711" type="curve"/>
    </contour>
    <contour>
      <point x="133" y="508"/>
      <point x="44" y="408"/>
      <point x="44" y="251" type="curve" smooth="yes"/>
      <point x="44" y="90"/>
      <point x="141" y="-11"/>
      <point x="305" y="-11" type="curve" smooth="yes"/>
      <point x="488" y="-11"/>
      <point x="609" y="112"/>
      <point x="602" y="287" type="curve"/>
      <point x="592" y="293" type="line"/>
      <point x="529" y="275" type="line"/>
      <point x="536" y="147"/>
      <point x="443" y="61"/>
      <point x="313" y="61" type="curve" smooth="yes"/>
      <point x="187" y="61"/>
      <point x="129" y="143"/>
      <point x="129" y="264" type="curve" smooth="yes"/>
      <point x="129" y="372"/>
      <point x="174" y="443"/>
      <point x="246" y="443" type="curve" smooth="yes"/>
      <point x="277" y="443"/>
      <point x="299" y="429"/>
      <point x="302" y="399" type="curve" smooth="yes"/>
      <point x="303" y="378"/>
      <point x="294" y="348"/>
      <point x="259" y="323" type="curve"/>
      <point x="329" y="329" type="line"/>
      <point x="355" y="355"/>
      <point x="365" y="390"/>
      <point x="365" y="414" type="curve" smooth="yes"/>
      <point x="365" y="467"/>
      <point x="323" y="508"/>
      <point x="248" y="508" type="curve" smooth="yes"/>
    </contour>
    <contour>
      <point x="394" y="197" type="line"/>
      <point x="405" y="198" type="line"/>
      <point x="426" y="238"/>
      <point x="450" y="255"/>
      <point x="481" y="255" type="curve"/>
      <point x="527" y="255"/>
      <point x="650" y="220"/>
      <point x="706" y="220" type="curve"/>
      <point x="753" y="225"/>
      <point x="783" y="250"/>
      <point x="809" y="295" type="curve"/>
      <point x="792" y="349" type="line"/>
      <point x="781" y="348" type="line"/>
      <point x="764" y="308"/>
      <point x="740" y="292"/>
      <point x="705" y="292" type="curve" smooth="yes"/>
      <point x="652" y="292"/>
      <point x="533" y="326"/>
      <point x="481" y="326" type="curve"/>
      <point x="434" y="321"/>
      <point x="403" y="297"/>
      <point x="377" y="252" type="curve"/>
    </contour>
  </outline>
</glyph>
<glyph name="b.sups" format="1">
  <advance width="318"/>
  <outline>
    <contour>
      <point x="254" y="644" type="line"/>
      <point x="221" y="612"/>
      <point x="189" y="566"/>
      <point x="163" y="516" type="curve"/>
      <point x="146" y="516" type="line"/>
      <point x="134" y="406" type="line"/>
      <point x="185" y="517"/>
      <point x="233" y="579"/>
      <point x="245" y="579" type="curve" smooth="yes"/>
      <point x="252" y="579"/>
      <point x="264" y="563"/>
      <point x="264" y="514" type="curve" smooth="yes"/>
      <point x="264" y="441"/>
      <point x="235" y="380"/>
      <point x="185" y="380" type="curve"/>
      <point x="116" y="399" type="line"/>
      <point x="79" y="345" type="line"/>
      <point x="171" y="328" type="line"/>
      <point x="175" y="328" type="line"/>
      <point x="278" y="349"/>
      <point x="332" y="444"/>
      <point x="332" y="543" type="curve" smooth="yes"/>
      <point x="332" y="597"/>
      <point x="315" y="626"/>
      <point x="265" y="644" type="curve"/>
    </contour>
    <contour>
      <point x="193" y="811" type="line"/>
      <point x="120" y="805" type="line"/>
      <point x="115" y="736" type="line"/>
      <point x="64" y="346" type="line"/>
      <point x="134" y="334" type="line"/>
      <point x="137" y="380" type="line"/>
      <point x="148" y="458" type="line"/>
      <point x="193" y="811" type="line"/>
    </contour>
    <contour>
      <point x="358" y="0" type="move" name="bottom"/>
    </contour>
    <contour>
      <point x="272" y="472" type="move" name="top"/>
    </contour>
  </outline>
</glyph>
<glyph name="breveacute" format="1">
  <advance width="390"/>
  <outline>
    <contour>
      <point x="342" y="650" type="line"/>
      <point x="321" y="613"/>
      <point x="286" y="591"/>
      <point x="240" y="591" type="curve" smooth="yes"/>
      <point x="193" y="591"/>
      <point x="162" y="612"/>
      <point x="152" y="650" type="curve"/>
      <point x="137" y="650" type="line"/>
      <point x="108" y="617" type="line"/>
      <point x="122" y="556"/>
      <point x="169" y="522"/>
      <point x="239" y="522" type="curve" smooth="yes"/>
      <point x="301" y="522"/>
      <point x="350" y="556"/>
      <point x="377" y="617" type="curve" smooth="yes"/>
      <point x="356" y="650" type="line"/>
    </contour>
    <contour>
      <point x="286" y="783" type="line"/>
      <point x="257" y="743"/>
      <point x="227" y="706"/>
      <point x="197" y="669" type="curve"/>
      <point x="229" y="642" type="line"/>
      <point x="238" y="644" type="line"/>
      <point x="273" y="677"/>
      <point x="307" y="710"/>
      <point x="340" y="745" type="curve"/>
      <point x="339" y="754" type="line"/>
      <point x="295" y="784" type="line"/>
    </contour>
    <contour>
      <point x="222" y="460" type="move" name="_top"/>
    </contour>
  </outline>
</glyph>
<glyph name="c.sups" format="1">
  <advance width="244"/>
  <outline>
    <contour>
      <point x="228" y="647" type="line"/>
      <point x="109" y="647"/>
      <point x="59" y="554"/>
      <point x="59" y="444" type="curve" smooth="yes"/>
      <point x="59" y="367"/>
      <point x="86" y="337"/>
      <point x="147" y="328" type="curve"/>
      <point x="158" y="328" type="line"/>
      <point x="201" y="339"/>
      <point x="230" y="360"/>
      <point x="259" y="411" type="curve"/>
      <point x="235" y="441" type="line"/>
      <point x="225" y="441" type="line"/>
      <point x="202" y="401"/>
      <point x="183" y="388"/>
      <point x="164" y="388" type="curve" smooth="yes"/>
      <point x="139" y="388"/>
      <point x="128" y="407"/>
      <point x="128" y="456" type="curve" smooth="yes"/>
      <point x="128" y="543"/>
      <point x="155" y="592"/>
      <point x="205" y="592" type="curve"/>
      <point x="219" y="592"/>
      <point x="230" y="585"/>
      <point x="244" y="570" type="curve"/>
      <point x="261" y="572" type="line"/>
      <point x="281" y="624" type="line"/>
      <point x="278" y="631" type="line"/>
      <point x="228" y="647" type="line"/>
    </contour>
    <contour>
      <point x="219" y="0" type="move" name="bottom"/>
    </contour>
    <contour>
      <point x="229" y="463" type="move" name="top"/>
    </contour>
  </outline>
</glyph>
<glyph name="circle1" format="1">
  <advance width="454"/>
  <outline>
    <contour>
      <point x="98" y="464"/>
      <point x="-9" y="357"/>
      <point x="-9" y="226" type="curve" smooth="yes"/>
      <point x="-9" y="95"/>
      <point x="98" y="-12"/>
      <point x="229" y="-12" type="curve" smooth="yes"/>
      <point x="360" y="-12"/>
      <point x="467" y="95"/>
      <point x="467" y="226" type="curve" smooth="yes"/>
      <point x="467" y="357"/>
      <point x="360" y="464"/>
      <point x="229" y="464" type="curve" smooth="yes"/>
    </contour>
  </outline>
</glyph>
<glyph name="circumflexacute" format="1">
  <advance width="390"/>
  <outline>
    <contour>
      <point x="229" y="666" type="line"/>
      <point x="189" y="633"/>
      <point x="146" y="601"/>
      <point x="98" y="571" type="curve"/>
      <point x="112" y="530" type="line"/>
      <point x="123" y="530" type="line"/>
      <point x="162" y="552"/>
      <point x="200" y="573"/>
      <point x="237" y="596" type="curve"/>
      <point x="269" y="573"/>
      <point x="299" y="552"/>
      <point x="333" y="530" type="curve"/>
      <point x="343" y="530" type="line"/>
      <point x="367" y="571" type="line"/>
      <point x="327" y="601"/>
      <point x="288" y="633"/>
      <point x="254" y="666" type="curve"/>
    </contour>
    <contour>
      <point x="358" y="779" type="line"/>
      <point x="288" y="669" type="line"/>
      <point x="322" y="643" type="line"/>
      <point x="330" y="643" type="line"/>
      <point x="416" y="750" type="line"/>
      <point x="415" y="759" type="line"/>
      <point x="366" y="782" type="line"/>
    </contour>
    <contour>
      <point x="222" y="460" type="move" name="_top"/>
    </contour>
  </outline>
</glyph>
<glyph name="circumflextilde" format="1">
  <advance width="390"/>
  <outline>
    <contour>
      <point x="223" y="666" type="line"/>
      <point x="183" y="633"/>
      <point x="140" y="601"/>
      <point x="92" y="571" type="curve"/>
      <point x="106" y="531" type="line"/>
      <point x="117" y="531" type="line"/>
      <point x="156" y="552"/>
      <point x="194" y="573"/>
      <point x="231" y="596" type="curve"/>
      <point x="263" y="573"/>
      <point x="293" y="552"/>
      <point x="327" y="531" type="curve"/>
      <point x="337" y="531" type="line"/>
      <point x="361" y="571" type="line"/>
      <point x="321" y="601"/>
      <point x="282" y="633"/>
      <point x="248" y="666" type="curve"/>
    </contour>
    <contour>
      <point x="373" y="805" type="line"/>
      <point x="349" y="779"/>
      <point x="334" y="758"/>
      <point x="318" y="758" type="curve" smooth="yes"/>
      <point x="294" y="758"/>
      <point x="214" y="787"/>
      <point x="173" y="792" type="curve"/>
      <point x="163" y="789" type="line"/>
      <point x="103" y="717" type="line"/>
      <point x="103" y="709" type="line"/>
      <point x="131" y="680" type="line"/>
      <point x="140" y="680" type="line"/>
      <point x="162" y="704"/>
      <point x="178" y="726"/>
      <point x="194" y="726" type="curve" smooth="yes"/>
      <point x="219" y="726"/>
      <point x="298" y="695"/>
      <point x="339" y="690" type="curve"/>
      <point x="349" y="694" type="line"/>
      <point x="408" y="767" type="line"/>
      <point x="408" y="776" type="line"/>
      <point x="381" y="805" type="line"/>
    </contour>
    <contour>
      <point x="203" y="460" type="move" name="_top"/>
    </contour>
  </outline>
</glyph>
<glyph name="dieresiscaron" format="1">
  <advance width="390"/>
  <outline>
    <contour>
      <point x="363" y="795" type="line"/>
      <point x="323" y="773"/>
      <point x="286" y="752"/>
      <point x="249" y="729" type="curve"/>
      <point x="217" y="752"/>
      <point x="186" y="773"/>
      <point x="153" y="795" type="curve"/>
      <point x="143" y="795" type="line"/>
      <point x="119" y="754" type="line"/>
      <point x="159" y="724"/>
      <point x="197" y="692"/>
      <point x="232" y="659" type="curve"/>
      <point x="257" y="659" type="line"/>
      <point x="296" y="692"/>
      <point x="340" y="724"/>
      <point x="388" y="754" type="curve"/>
      <point x="374" y="795" type="line"/>
    </contour>
    <contour>
      <point x="130" y="639"/>
      <point x="111" y="619"/>
      <point x="111" y="589" type="curve" smooth="yes"/>
      <point x="111" y="559"/>
      <point x="128" y="542"/>
      <point x="157" y="542" type="curve" smooth="yes"/>
      <point x="188" y="542"/>
      <point x="207" y="562"/>
      <point x="207" y="592" type="curve" smooth="yes"/>
      <point x="207" y="622"/>
      <point x="190" y="639"/>
      <point x="161" y="639" type="curve" smooth="yes"/>
    </contour>
    <contour>
      <point x="293" y="639"/>
      <point x="274" y="619"/>
      <point x="274" y="589" type="curve" smooth="yes"/>
      <point x="274" y="559"/>
      <point x="291" y="542"/>
      <point x="320" y="542" type="curve" smooth="yes"/>
      <point x="351" y="542"/>
      <point x="370" y="562"/>
      <point x="370" y="592" type="curve" smooth="yes"/>
      <point x="370" y="622"/>
      <point x="353" y="639"/>
      <point x="324" y="639" type="curve" smooth="yes"/>
    </contour>
    <contour>
      <point x="222" y="460" type="move" name="_top"/>
    </contour>
  </outline>
</glyph>
<glyph name="dieresisgrave" format="1">
  <advance width="390"/>
  <outline>
    <contour>
      <point x="165" y="806" type="line"/>
      <point x="143" y="745" type="line"/>
      <point x="147" y="735" type="line"/>
      <point x="219" y="717"/>
      <point x="287" y="703"/>
      <point x="354" y="690" type="curve"/>
      <point x="365" y="695" type="line"/>
      <point x="379" y="740" type="line"/>
      <point x="311" y="761"/>
      <point x="245" y="782"/>
      <point x="175" y="810" type="curve"/>
    </contour>
    <contour>
      <point x="129" y="639"/>
      <point x="107" y="617"/>
      <point x="107" y="584" type="curve" smooth="yes"/>
      <point x="107" y="558"/>
      <point x="122" y="542"/>
      <point x="149" y="542" type="curve" smooth="yes"/>
      <point x="183" y="542"/>
      <point x="204" y="564"/>
      <point x="204" y="597" type="curve" smooth="yes"/>
      <point x="204" y="623"/>
      <point x="188" y="639"/>
      <point x="162" y="639" type="curve" smooth="yes"/>
    </contour>
    <contour>
      <point x="292" y="639"/>
      <point x="270" y="617"/>
      <point x="270" y="584" type="curve" smooth="yes"/>
      <point x="270" y="558"/>
      <point x="285" y="542"/>
      <point x="312" y="542" type="curve" smooth="yes"/>
      <point x="346" y="542"/>
      <point x="367" y="564"/>
      <point x="367" y="597" type="curve" smooth="yes"/>
      <point x="367" y="623"/>
      <point x="351" y="639"/>
      <point x="325" y="639" type="curve" smooth="yes"/>
    </contour>
    <contour>
      <point x="227" y="460" type="move" name="_top"/>
    </contour>
  </outline>
</glyph>
<glyph name="eight.dnom" format="1">
  <advance width="348"/>
  <outline>
    <contour>
      <point x="113" y="385"/>
      <point x="57" y="340"/>
      <point x="57" y="269" type="curve" smooth="yes"/>
      <point x="57" y="229"/>
      <point x="82" y="206"/>
      <point x="113" y="190" type="curve"/>
      <point x="113" y="186" type="line"/>
      <point x="59" y="167"/>
      <point x="21" y="138"/>
      <point x="21" y="87" type="curve" smooth="yes"/>
      <point x="21" y="32"/>
      <point x="65" y="-5"/>
      <point x="141" y="-5" type="curve" smooth="yes"/>
      <point x="231" y="-5"/>
      <point x="292" y="42"/>
      <point x="292" y="116" type="curve" smooth="yes"/>
      <point x="292" y="161"/>
      <point x="261" y="182"/>
      <point x="225" y="199" type="curve"/>
      <point x="226" y="203" type="line"/>
      <point x="270" y="225"/>
      <point x="303" y="251"/>
      <point x="303" y="300" type="curve" smooth="yes"/>
      <point x="303" y="351"/>
      <point x="261" y="385"/>
      <point x="196" y="385" type="curve" smooth="yes"/>
    </contour>
    <contour>
      <point x="192" y="152"/>
      <point x="226" y="139"/>
      <point x="226" y="106" type="curve" smooth="yes"/>
      <point x="226" y="73"/>
      <point x="197" y="46"/>
      <point x="149" y="46" type="curve" smooth="yes"/>
      <point x="110" y="46"/>
      <point x="89" y="65"/>
      <point x="89" y="95" type="curve" smooth="yes"/>
      <point x="89" y="136"/>
      <point x="122" y="154"/>
      <point x="159" y="166" type="curve"/>
    </contour>
    <contour>
      <point x="220" y="332"/>
      <point x="239" y="316"/>
      <point x="239" y="289" type="curve" smooth="yes"/>
      <point x="239" y="253"/>
      <point x="211" y="236"/>
      <point x="180" y="221" type="curve"/>
      <point x="150" y="233"/>
      <point x="124" y="247"/>
      <point x="124" y="277" type="curve" smooth="yes"/>
      <point x="124" y="310"/>
      <point x="148" y="332"/>
      <point x="189" y="332" type="curve" smooth="yes"/>
    </contour>
  </outline>
</glyph>
<glyph name="eight.tosf" format="1">
  <advance width="476"/>
  <outline>
    <contour>
      <point x="164" y="593"/>
      <point x="89" y="524"/>
      <point x="89" y="425" type="curve" smooth="yes"/>
      <point x="89" y="355"/>
      <point x="124" y="323"/>
      <point x="167" y="298" type="curve"/>
      <point x="166" y="293" type="line"/>
      <point x="95" y="261"/>
      <point x="35" y="221"/>
      <point x="35" y="138" type="curve" smooth="yes"/>
      <point x="35" y="51"/>
      <point x="105" y="-8"/>
      <point x="217" y="-8" type="curve" smooth="yes"/>
      <point x="340" y="-8"/>
      <point x="421" y="65"/>
      <point x="421" y="166" type="curve" smooth="yes"/>
      <point x="421" y="244"/>
      <point x="375" y="277"/>
      <point x="323" y="304" type="curve"/>
      <point x="324" y="309" type="line"/>
      <point x="379" y="337"/>
      <point x="434" y="380"/>
      <point x="434" y="458" type="curve" smooth="yes"/>
      <point x="434" y="543"/>
      <point x="372" y="593"/>
      <point x="276" y="593" type="curve" smooth="yes"/>
    </contour>
    <contour>
      <point x="296" y="239"/>
      <point x="341" y="217"/>
      <point x="341" y="160" type="curve" smooth="yes"/>
      <point x="341" y="103"/>
      <point x="291" y="59"/>
      <point x="219" y="59" type="curve" smooth="yes"/>
      <point x="154" y="59"/>
      <point x="118" y="95"/>
      <point x="118" y="151" type="curve" smooth="yes"/>
      <point x="118" y="218"/>
      <point x="174" y="243"/>
      <point x="233" y="265" type="curve"/>
    </contour>
    <contour>
      <point x="328" y="525"/>
      <point x="357" y="497"/>
      <point x="357" y="449" type="curve" smooth="yes"/>
      <point x="357" y="388"/>
      <point x="309" y="358"/>
      <point x="258" y="335" type="curve"/>
      <point x="208" y="356"/>
      <point x="169" y="378"/>
      <point x="169" y="433" type="curve" smooth="yes"/>
      <point x="169" y="487"/>
      <point x="212" y="525"/>
      <point x="274" y="525" type="curve" smooth="yes"/>
    </contour>
  </outline>
</glyph>
<glyph name="f.f" format="1">
  <advance width="287"/>
  <outline>
    <contour>
      <point x="215" y="686"/>
      <point x="154" y="616"/>
      <point x="138" y="490" type="curve" smooth="yes"/>
      <point x="96" y="190" type="line"/>
      <point x="52" y="-124" type="line"/>
      <point x="148" y="-117" type="line"/>
      <point x="151" y="-9" type="line"/>
      <point x="182" y="201" type="line"/>
      <point x="224" y="514" type="line" smooth="yes"/>
      <point x="234" y="581"/>
      <point x="269" y="617"/>
      <point x="316" y="617" type="curve" smooth="yes"/>
      <point x="338" y="617"/>
      <point x="371" y="609"/>
      <point x="396" y="593" type="curve"/>
      <point x="410" y="596" type="line"/>
      <point x="436" y="664" type="line"/>
      <point x="433" y="672" type="line"/>
      <point x="337" y="686" type="line"/>
    </contour>
    <contour>
      <point x="58" y="451" type="line"/>
      <point x="50" y="397" type="line"/>
      <point x="55" y="390" type="line"/>
      <point x="451" y="390" type="line"/>
      <point x="460" y="443" type="line"/>
      <point x="452" y="451" type="line"/>
    </contour>
  </outline>
</glyph>
<glyph name="f.l" format="1">
  <advance width="289"/>
  <outline>
    <contour>
      <point x="220" y="712"/>
      <point x="159" y="640"/>
      <point x="141" y="515" type="curve" smooth="yes"/>
      <point x="96" y="190" type="line"/>
      <point x="52" y="-124" type="line"/>
      <point x="147" y="-117" type="line"/>
      <point x="151" y="-9" type="line"/>
      <point x="181" y="201" type="line"/>
      <point x="227" y="538" type="line" smooth="yes"/>
      <point x="239" y="606"/>
      <point x="274" y="641"/>
      <point x="325" y="641" type="curve" smooth="yes"/>
      <point x="361" y="641"/>
      <point x="396" y="633"/>
      <point x="437" y="618" type="curve"/>
      <point x="450" y="621" type="line"/>
      <point x="471" y="689" type="line"/>
      <point x="467" y="695" type="line"/>
      <point x="345" y="712" type="line"/>
    </contour>
    <contour>
      <point x="58" y="451" type="line"/>
      <point x="50" y="397" type="line"/>
      <point x="55" y="390" type="line"/>
      <point x="320" y="390" type="line"/>
      <point x="328" y="443" type="line"/>
      <point x="321" y="451" type="line"/>
    </contour>
  </outline>
</glyph>
<glyph name="f.t" format="1">
  <advance width="289"/>
  <outline>
    <contour>
      <point x="217" y="704"/>
      <point x="157" y="633"/>
      <point x="140" y="507" type="curve" smooth="yes"/>
      <point x="96" y="190" type="line"/>
      <point x="52" y="-124" type="line"/>
      <point x="148" y="-117" type="line"/>
      <point x="151" y="-9" type="line"/>
      <point x="182" y="201" type="line"/>
      <point x="226" y="531" type="line" smooth="yes"/>
      <point x="235" y="599"/>
      <point x="271" y="634"/>
      <point x="318" y="634" type="curve" smooth="yes"/>
      <point x="340" y="634"/>
      <point x="373" y="627"/>
      <point x="399" y="611" type="curve"/>
      <point x="412" y="614" type="line"/>
      <point x="438" y="682" type="line"/>
      <point x="434" y="689" type="line"/>
      <point x="339" y="704" type="line"/>
    </contour>
    <contour>
      <point x="58" y="451" type="line"/>
      <point x="50" y="397" type="line"/>
      <point x="55" y="390" type="line"/>
      <point x="455" y="390" type="line"/>
      <point x="464" y="443" type="line"/>
      <point x="456" y="451" type="line"/>
    </contour>
    <contour>
      <point x="173" y="0" type="move" name="bottom"/>
    </contour>
    <contour>
      <point x="280" y="749" type="move" name="top"/>
    </contour>
  </outline>
</glyph>
<glyph name="four.tf" format="1">
  <advance width="475"/>
  <outline>
    <contour>
      <point x="306" y="586" type="line"/>
      <point x="22" y="230" type="line"/>
      <point x="15" y="167" type="line"/>
      <point x="21" y="158" type="line"/>
      <point x="92" y="161" type="line"/>
      <point x="333" y="161" type="line"/>
      <point x="429" y="158" type="line"/>
      <point x="442" y="226" type="line"/>
      <point x="437" y="235" type="line"/>
      <point x="107" y="235" type="line"/>
      <point x="297" y="473" type="line"/>
      <point x="304" y="473" type="line"/>
      <point x="272" y="214" type="line"/>
      <point x="241" y="-0" type="line"/>
      <point x="246" y="-7" type="line"/>
      <point x="320" y="-1" type="line"/>
      <point x="327" y="6" type="line"/>
      <point x="345" y="198" type="line"/>
      <point x="395" y="586" type="line"/>
    </contour>
  </outline>
</glyph>
<glyph name="four.tosf" format="1">
  <advance width="475"/>
  <outline>
    <contour>
      <point x="299" y="501" type="line"/>
      <point x="11" y="141" type="line"/>
      <point x="4" y="78" type="line"/>
      <point x="9" y="69" type="line"/>
      <point x="81" y="71" type="line"/>
      <point x="327" y="71" type="line"/>
      <point x="424" y="69" type="line"/>
      <point x="437" y="136" type="line"/>
      <point x="432" y="145" type="line"/>
      <point x="96" y="145" type="line"/>
      <point x="291" y="388" type="line"/>
      <point x="298" y="388" type="line"/>
      <point x="265" y="124" type="line"/>
      <point x="234" y="-90" type="line"/>
      <point x="240" y="-97" type="line"/>
      <point x="313" y="-91" type="line"/>
      <point x="320" y="-84" type="line"/>
      <point x="339" y="109" type="line"/>
      <point x="388" y="501" type="line"/>
    </contour>
  </outline>
</glyph>
<glyph name="h.sups" format="1">
  <advance width="338"/>
  <outline>
    <contour>
      <point x="261" y="646" type="line"/>
      <point x="227" y="617"/>
      <point x="195" y="572"/>
      <point x="161" y="514" type="curve"/>
      <point x="150" y="514" type="line"/>
      <point x="133" y="419" type="line"/>
      <point x="185" y="521"/>
      <point x="226" y="572"/>
      <point x="243" y="572" type="curve" smooth="yes"/>
      <point x="250" y="572"/>
      <point x="258" y="563"/>
      <point x="258" y="545" type="curve"/>
      <point x="257" y="537" type="line"/>
      <point x="224" y="329" type="line"/>
      <point x="299" y="335" type="line"/>
      <point x="304" y="406" type="line"/>
      <point x="330" y="571" type="line"/>
      <point x="331" y="580" type="line"/>
      <point x="332" y="613"/>
      <point x="308" y="639"/>
      <point x="269" y="646" type="curve"/>
    </contour>
    <contour>
      <point x="192" y="811" type="line"/>
      <point x="118" y="805" type="line"/>
      <point x="115" y="736" type="line"/>
      <point x="61" y="329" type="line"/>
      <point x="134" y="335" type="line"/>
      <point x="138" y="407" type="line"/>
      <point x="192" y="811" type="line"/>
    </contour>
    <contour>
      <point x="22" y="0" type="move" name="bottom"/>
    </contour>
    <contour>
      <point x="38" y="26" type="move" name="center"/>
    </contour>
    <contour>
      <point x="38" y="52" type="move" name="top"/>
    </contour>
    <contour>
      <point x="35" y="52" type="move" name="topright"/>
    </contour>
  </outline>
</glyph>
<glyph name="j.sups" format="1">
  <advance width="177"/>
  <outline>
    <contour>
      <point x="172" y="644" type="line"/>
      <point x="105" y="638" type="line"/>
      <point x="59" y="638" type="line"/>
      <point x="53" y="600" type="line"/>
      <point x="57" y="596" type="line"/>
      <point x="98" y="596" type="line"/>
      <point x="98" y="570" type="line"/>
      <point x="68" y="343" type="line"/>
      <point x="61" y="293"/>
      <point x="44" y="266"/>
      <point x="9" y="241" type="curve"/>
      <point x="8" y="235" type="line"/>
      <point x="31" y="202" type="line"/>
      <point x="97" y="237"/>
      <point x="127" y="279"/>
      <point x="136" y="351" type="curve"/>
      <point x="143" y="403" type="line"/>
      <point x="174" y="641" type="line"/>
      <point x="172" y="644" type="line"/>
    </contour>
    <contour>
      <point x="121" y="796"/>
      <point x="103" y="781"/>
      <point x="103" y="753" type="curve" smooth="yes"/>
      <point x="103" y="726"/>
      <point x="118" y="713"/>
      <point x="143" y="713" type="curve" smooth="yes"/>
      <point x="170" y="713"/>
      <point x="187" y="729"/>
      <point x="187" y="757" type="curve" smooth="yes"/>
      <point x="187" y="782"/>
      <point x="172" y="796"/>
      <point x="147" y="796" type="curve" smooth="yes"/>
    </contour>
    <contour>
      <point x="29" y="52" type="move" name="_top"/>
    </contour>
    <contour>
      <point x="27" y="52" type="move" name="top"/>
    </contour>
  </outline>
</glyph>
<glyph name="nine.tosf" format="1">
  <advance width="476"/>
  <outline>
    <contour>
      <point x="97" y="509"/>
      <point x="49" y="381"/>
      <point x="49" y="304" type="curve" smooth="yes"/>
      <point x="49" y="218"/>
      <point x="112" y="148"/>
      <point x="205" y="148" type="curve" smooth="yes"/>
      <point x="247" y="148"/>
      <point x="281" y="162"/>
      <point x="320" y="186" type="curve"/>
      <point x="334" y="166" type="line"/>
      <point x="359" y="279" type="line"/>
      <point x="317" y="239"/>
      <point x="269" y="218"/>
      <point x="226" y="218" type="curve" smooth="yes"/>
      <point x="168" y="218"/>
      <point x="138" y="253"/>
      <point x="138" y="314" type="curve" smooth="yes"/>
      <point x="138" y="374"/>
      <point x="163" y="440"/>
      <point x="252" y="440" type="curve" smooth="yes"/>
      <point x="333" y="440"/>
      <point x="352" y="383"/>
      <point x="352" y="312" type="curve" smooth="yes"/>
      <point x="352" y="188"/>
      <point x="301" y="48"/>
      <point x="23" y="-40" type="curve"/>
      <point x="22" y="-50" type="line"/>
      <point x="93" y="-94" type="line"/>
      <point x="99" y="-94" type="line"/>
      <point x="351" y="2"/>
      <point x="441" y="175"/>
      <point x="441" y="318" type="curve" smooth="yes"/>
      <point x="441" y="433"/>
      <point x="378" y="509"/>
      <point x="256" y="509" type="curve" smooth="yes"/>
    </contour>
  </outline>
</glyph>
<glyph name="o.sups" format="1">
  <advance width="302"/>
  <outline>
    <contour>
      <point x="216" y="648" type="line"/>
      <point x="119" y="643"/>
      <point x="58" y="560"/>
      <point x="58" y="438" type="curve" smooth="yes"/>
      <point x="58" y="370"/>
      <point x="88" y="335"/>
      <point x="140" y="328" type="curve"/>
      <point x="146" y="327" type="line"/>
      <point x="244" y="332"/>
      <point x="305" y="415"/>
      <point x="305" y="541" type="curve" smooth="yes"/>
      <point x="305" y="606"/>
      <point x="275" y="639"/>
      <point x="224" y="648" type="curve"/>
      <point x="216" y="648" type="line"/>
    </contour>
    <contour>
      <point x="226" y="594"/>
      <point x="234" y="577"/>
      <point x="234" y="536" type="curve" smooth="yes"/>
      <point x="234" y="437"/>
      <point x="211" y="379"/>
      <point x="159" y="379" type="curve" smooth="yes"/>
      <point x="136" y="379"/>
      <point x="126" y="396"/>
      <point x="126" y="438" type="curve" smooth="yes"/>
      <point x="126" y="533"/>
      <point x="151" y="594"/>
      <point x="203" y="594" type="curve" smooth="yes"/>
    </contour>
  </outline>
</glyph>
<glyph name="right" format="1">
  <advance width="414"/>
  <outline>
    <contour>
      <point x="92" y="84" type="line"/>
      <point x="380" y="227" type="line"/>
      <point x="92" y="371" type="line"/>
    </contour>
  </outline>
</glyph>
<glyph name="s.sups" format="1">
  <advance width="241"/>
  <outline>
    <contour>
      <point x="125" y="647"/>
      <point x="69" y="607"/>
      <point x="69" y="544" type="curve" smooth="yes"/>
      <point x="69" y="471"/>
      <point x="172" y="458"/>
      <point x="174" y="412" type="curve" smooth="yes"/>
      <point x="175" y="392"/>
      <point x="159" y="373"/>
      <point x="133" y="373" type="curve" smooth="yes"/>
      <point x="111" y="373"/>
      <point x="84" y="387"/>
      <point x="63" y="410" type="curve"/>
      <point x="56" y="404" type="line"/>
      <point x="39" y="345" type="line"/>
      <point x="62" y="335"/>
      <point x="86" y="330"/>
      <point x="114" y="327" type="curve"/>
      <point x="185" y="328"/>
      <point x="237" y="370"/>
      <point x="237" y="426" type="curve" smooth="yes"/>
      <point x="237" y="508"/>
      <point x="134" y="516"/>
      <point x="134" y="561" type="curve" smooth="yes"/>
      <point x="134" y="581"/>
      <point x="148" y="599"/>
      <point x="172" y="599" type="curve" smooth="yes"/>
      <point x="186" y="599"/>
      <point x="210" y="590"/>
      <point x="229" y="572" type="curve"/>
      <point x="240" y="576" type="line"/>
      <point x="256" y="630" type="line"/>
      <point x="235" y="638"/>
      <point x="215" y="644"/>
      <point x="192" y="646" type="curve"/>
    </contour>
    <contour>
      <point x="29" y="0" type="move" name="bottom"/>
    </contour>
    <contour>
      <point x="30" y="52" type="move" name="top"/>
    </contour>
  </outline>
</glyph>
<glyph name="seven.tf" format="1">
  <advance width="476"/>
  <outline>
    <contour>
      <point x="73" y="506" type="line"/>
      <point x="78" y="497" type="line"/>
      <point x="162" y="505" type="line"/>
      <point x="370" y="505" type="line"/>
      <point x="72" y="25" type="line"/>
      <point x="76" y="9" type="line"/>
      <point x="153" y="-15" type="line"/>
      <point x="219" y="114" type="line"/>
      <point x="466" y="516" type="line"/>
      <point x="473" y="588" type="line"/>
      <point x="427" y="586" type="line"/>
      <point x="188" y="586" type="line"/>
      <point x="89" y="589" type="line"/>
    </contour>
  </outline>
</glyph>
<glyph name="six.tosf" format="1">
  <advance width="475"/>
  <outline>
    <contour>
      <point x="383" y="594" type="line"/>
      <point x="130" y="499"/>
      <point x="40" y="325"/>
      <point x="40" y="183" type="curve" smooth="yes"/>
      <point x="40" y="67"/>
      <point x="103" y="-8"/>
      <point x="225" y="-8" type="curve" smooth="yes"/>
      <point x="384" y="-8"/>
      <point x="432" y="119"/>
      <point x="432" y="197" type="curve" smooth="yes"/>
      <point x="432" y="283"/>
      <point x="369" y="353"/>
      <point x="277" y="353" type="curve" smooth="yes"/>
      <point x="235" y="353"/>
      <point x="200" y="338"/>
      <point x="162" y="314" type="curve"/>
      <point x="147" y="335" type="line"/>
      <point x="122" y="222" type="line"/>
      <point x="164" y="262"/>
      <point x="213" y="283"/>
      <point x="255" y="283" type="curve" smooth="yes"/>
      <point x="313" y="283"/>
      <point x="343" y="248"/>
      <point x="343" y="187" type="curve" smooth="yes"/>
      <point x="343" y="127"/>
      <point x="318" y="61"/>
      <point x="230" y="61" type="curve" smooth="yes"/>
      <point x="148" y="61"/>
      <point x="129" y="118"/>
      <point x="129" y="188" type="curve" smooth="yes"/>
      <point x="129" y="312"/>
      <point x="181" y="453"/>
      <point x="458" y="540" type="curve"/>
      <point x="459" y="550" type="line"/>
      <point x="388" y="594" type="line"/>
    </contour>
  </outline>
</glyph>
<glyph name="three.dnom" format="1">
  <advance width="312"/>
  <outline>
    <contour>
      <point x="112" y="385"/>
      <point x="79" y="372"/>
      <point x="39" y="346" type="curve"/>
      <point x="45" y="293" type="line"/>
      <point x="54" y="293" type="line"/>
      <point x="86" y="313"/>
      <point x="112" y="323"/>
      <point x="137" y="323" type="curve" smooth="yes"/>
      <point x="165" y="323"/>
      <point x="183" y="310"/>
      <point x="183" y="286" type="curve" smooth="yes"/>
      <point x="183" y="251"/>
      <point x="143" y="224"/>
      <point x="107" y="223" type="curve" smooth="yes"/>
      <point x="76" y="223" type="line"/>
      <point x="69" y="170" type="line"/>
      <point x="73" y="166" type="line"/>
      <point x="118" y="166" type="line"/>
      <point x="158" y="164"/>
      <point x="179" y="148"/>
      <point x="179" y="118" type="curve" smooth="yes"/>
      <point x="179" y="79"/>
      <point x="143" y="54"/>
      <point x="85" y="54" type="curve" smooth="yes"/>
      <point x="63" y="54"/>
      <point x="40" y="58"/>
      <point x="15" y="64" type="curve"/>
      <point x="9" y="59" type="line"/>
      <point x="6" y="3" type="line"/>
      <point x="27" y="-2"/>
      <point x="55" y="-4"/>
      <point x="77" y="-4" type="curve" smooth="yes"/>
      <point x="183" y="-4"/>
      <point x="257" y="47"/>
      <point x="257" y="122" type="curve" smooth="yes"/>
      <point x="257" y="163"/>
      <point x="235" y="190"/>
      <point x="191" y="202" type="curve"/>
      <point x="191" y="205" type="line"/>
      <point x="244" y="228"/>
      <point x="266" y="267"/>
      <point x="266" y="301" type="curve" smooth="yes"/>
      <point x="266" y="352"/>
      <point x="215" y="385"/>
      <point x="152" y="385" type="curve" smooth="yes"/>
    </contour>
  </outline>
</glyph>
<glyph name="three.tosf" format="1">
  <advance width="476"/>
  <outline>
    <contour>
      <point x="183" y="506"/>
      <point x="131" y="486"/>
      <point x="71" y="445" type="curve"/>
      <point x="77" y="370" type="line"/>
      <point x="87" y="370" type="line"/>
      <point x="138" y="406"/>
      <point x="181" y="426"/>
      <point x="227" y="426" type="curve" smooth="yes"/>
      <point x="277" y="426"/>
      <point x="307" y="402"/>
      <point x="307" y="363" type="curve" smooth="yes"/>
      <point x="307" y="298"/>
      <point x="229" y="252"/>
      <point x="172" y="252" type="curve" smooth="yes"/>
      <point x="123" y="251" type="line"/>
      <point x="112" y="183" type="line"/>
      <point x="117" y="177" type="line"/>
      <point x="183" y="177" type="line"/>
      <point x="259" y="174"/>
      <point x="301" y="146"/>
      <point x="301" y="93" type="curve" smooth="yes"/>
      <point x="301" y="24"/>
      <point x="230" y="-20"/>
      <point x="138" y="-20" type="curve" smooth="yes"/>
      <point x="98" y="-20"/>
      <point x="62" y="-11"/>
      <point x="27" y="6" type="curve"/>
      <point x="18" y="-2" type="line"/>
      <point x="15" y="-86" type="line"/>
      <point x="47" y="-92"/>
      <point x="92" y="-97"/>
      <point x="128" y="-97" type="curve" smooth="yes"/>
      <point x="280" y="-97"/>
      <point x="396" y="-12"/>
      <point x="396" y="100" type="curve" smooth="yes"/>
      <point x="396" y="168"/>
      <point x="353" y="205"/>
      <point x="283" y="225" type="curve"/>
      <point x="283" y="229" type="line"/>
      <point x="369" y="267"/>
      <point x="409" y="327"/>
      <point x="409" y="383" type="curve" smooth="yes"/>
      <point x="409" y="454"/>
      <point x="344" y="506"/>
      <point x="245" y="506" type="curve" smooth="yes"/>
    </contour>
  </outline>
</glyph>
<glyph name="x.sups" format="1">
  <advance width="316"/>
  <outline>
    <contour>
      <point x="234" y="488" type="line"/>
      <point x="341" y="641" type="line"/>
      <point x="264" y="641" type="line"/>
      <point x="251" y="614" type="line"/>
      <point x="198" y="540" type="line"/>
      <point x="166" y="617" type="line"/>
      <point x="156" y="647" type="line"/>
      <point x="78" y="639" type="line"/>
      <point x="141" y="493" type="line"/>
      <point x="31" y="332" type="line"/>
      <point x="110" y="332" type="line"/>
      <point x="127" y="365" type="line"/>
      <point x="180" y="447" type="line"/>
      <point x="215" y="365" type="line"/>
      <point x="223" y="328" type="line"/>
      <point x="304" y="335" type="line"/>
      <point x="234" y="488" type="line"/>
    </contour>
  </outline>
</glyph>
<glyph name="y.sups" format="1">
  <advance width="296"/>
  <outline>
    <contour>
      <point x="236" y="632" type="line"/>
      <point x="243" y="618"/>
      <point x="248" y="605"/>
      <point x="248" y="588" type="curve" smooth="yes"/>
      <point x="248" y="569"/>
      <point x="241" y="544"/>
      <point x="227" y="513" type="curve" smooth="yes"/>
      <point x="154" y="358" type="line" smooth="yes"/>
      <point x="119" y="296"/>
      <point x="76" y="271"/>
      <point x="34" y="271" type="curve" smooth="yes"/>
      <point x="17" y="271"/>
      <point x="-0" y="274"/>
      <point x="-19" y="280" type="curve"/>
      <point x="-26" y="273" type="line"/>
      <point x="-23" y="212" type="line"/>
      <point x="-3" y="205"/>
      <point x="17" y="201"/>
      <point x="37" y="201" type="curve" smooth="yes"/>
      <point x="99" y="201"/>
      <point x="149" y="242"/>
      <point x="215" y="361" type="curve" smooth="yes"/>
      <point x="278" y="481" type="line" smooth="yes"/>
      <point x="305" y="529"/>
      <point x="317" y="563"/>
      <point x="317" y="593" type="curve" smooth="yes"/>
      <point x="317" y="611"/>
      <point x="313" y="628"/>
      <point x="304" y="646" type="curve"/>
    </contour>
    <contour>
      <point x="136" y="644" type="line"/>
      <point x="63" y="639" type="line"/>
      <point x="134" y="295" type="line"/>
      <point x="213" y="413" type="line"/>
      <point x="168" y="413" type="line"/>
      <point x="142" y="589" type="line"/>
      <point x="136" y="644" type="line"/>
    </contour>
    <contour>
      <point x="34" y="52" type="move" name="top"/>
    </contour>
  </outline>
</glyph>
<glyph name="zero.dnom" format="1">
  <advance width="377"/>
  <outline>
    <contour>
      <point x="94" y="384"/>
      <point x="30" y="294"/>
      <point x="30" y="147" type="curve" smooth="yes"/>
      <point x="30" y="50"/>
      <point x="74" y="-5"/>
      <point x="156" y="-5" type="curve" smooth="yes"/>
      <point x="273" y="-5"/>
      <point x="337" y="84"/>
      <point x="337" y="232" type="curve" smooth="yes"/>
      <point x="337" y="330"/>
      <point x="292" y="384"/>
      <point x="210" y="384" type="curve" smooth="yes"/>
    </contour>
    <contour>
      <point x="246" y="313"/>
      <point x="271" y="279"/>
      <point x="271" y="215" type="curve" smooth="yes"/>
      <point x="271" y="120"/>
      <point x="239" y="62"/>
      <point x="166" y="62" type="curve" smooth="yes"/>
      <point x="118" y="62"/>
      <point x="94" y="95"/>
      <point x="94" y="160" type="curve" smooth="yes"/>
      <point x="94" y="258"/>
      <point x="129" y="313"/>
      <point x="196" y="313" type="curve" smooth="yes"/>
    </contour>
  </outline>
</glyph>
<glyph name="zero.tosf" format="1">
  <advance width="479"/>
  <outline>
    <contour>
      <point x="125" y="507"/>
      <point x="32" y="387"/>
      <point x="32" y="199" type="curve" smooth="yes"/>
      <point x="32" y="67"/>
      <point x="94" y="-8"/>
      <point x="206" y="-8" type="curve" smooth="yes"/>
      <point x="359" y="-8"/>
      <point x="450" y="111"/>
      <point x="450" y="300" type="curve" smooth="yes"/>
      <point x="450" y="433"/>
      <point x="390" y="507"/>
      <point x="279" y="507" type="curve" smooth="yes"/>
    </contour>
    <contour>
      <point x="336" y="418"/>
      <point x="374" y="371"/>
      <point x="374" y="279" type="curve" smooth="yes"/>
      <point x="374" y="150"/>
      <point x="321" y="78"/>
      <point x="222" y="78" type="curve" smooth="yes"/>
      <point x="146" y="78"/>
      <point x="109" y="124"/>
      <point x="109" y="213" type="curve" smooth="yes"/>
      <point x="109" y="344"/>
      <point x="159" y="418"/>
      <point x="261" y="418" type="curve" smooth="yes"/>
    </contour>
  </outline>
</glyph>
